<svg version="1.1" preserveAspectRatio="none" xmlns="http://www.w3.org/2000/svg" width="500" height="500" viewBox="0 0 500 500"><rect width="100%" height="100%" fill="#FCF2E8" fill-opacity="1"/><svg viewBox="215.4227 95.3445 461.654 274.2368" width="333" height="197.8123321795111" x="83.5px" y="151.0938px" xmlns="http://www.w3.org/2000/svg" xmlns:xlink="http://www.w3.org/1999/xlink" preserveAspectRatio="none"><defs></defs><style>.aDFQBjvS2colors-3 {fill:#4348FF;fill-opacity:1;}.aDFQBjvS2colors-4 {fill:#FEA732;fill-opacity:1;}.aDFQBjvS2colors-5 {fill:#FF8965;fill-opacity:1;}.aDFQBjvS2colors-6 {fill:#FED532;fill-opacity:1;}.aDFQBjvS2colors-7 {fill:#C6CEFF;fill-opacity:1;}.companyName {fill:#FE6232;fill-opacity:1;}.icon1 {fill:#FE6232;fill-opacity:1;}.icon2 {fill:#8A81FF;fill-opacity:1;}.icon3 {fill:#FF8423;fill-opacity:1;}.icon3-str {stroke:#FF8423;stroke-opacity:1;}.text {fill:#FE6232;fill-opacity:1;}</style><g opacity="1" transform="rotate(0 215.4227 347.0813)">
<svg width="461.654" height="22.5" x="215.4227" y="347.0813" version="1.1" preserveAspectRatio="none" viewBox="0.24 -30.28 785.32 38.28">
  <g transform="matrix(1 0 0 1 0 0)" class="text"><path id="id-6izo4zJp33" d="M32.28-21.20L35.72-21.20L27.80 0L24.12 0L18-16.08L11.80 0L8.12 0L0.24-21.20L3.88-21.20L10.04-4.32L16.44-21.20L19.68-21.20L25.96-4.24L32.28-21.20Z M60.16-10.48Q60.16-10.04 60.08-9.32L60.08-9.32L42.88-9.32Q43.24-6.52 45.34-4.82Q47.44-3.12 50.56-3.12L50.56-3.12Q54.36-3.12 56.68-5.68L56.68-5.68L58.80-3.20Q57.36-1.52 55.22-0.64Q53.08 0.24 50.44 0.24L50.44 0.24Q47.08 0.24 44.48-1.14Q41.88-2.52 40.46-5Q39.04-7.48 39.04-10.60L39.04-10.60Q39.04-13.68 40.42-16.16Q41.80-18.64 44.22-20.02Q46.64-21.40 49.68-21.40L49.68-21.40Q52.72-21.40 55.10-20.02Q57.48-18.64 58.82-16.16Q60.16-13.68 60.16-10.48L60.16-10.48ZM49.68-18.16Q46.92-18.16 45.06-16.48Q43.20-14.80 42.88-12.08L42.88-12.08L56.48-12.08Q56.16-14.76 54.30-16.46Q52.44-18.16 49.68-18.16L49.68-18.16Z M67.48 0L67.48-29.68L71.32-29.68L71.32 0L67.48 0Z M89.88 0.24Q86.64 0.24 84.10-1.16Q81.56-2.56 80.12-5.02Q78.68-7.48 78.68-10.60L78.68-10.60Q78.68-13.72 80.12-16.18Q81.56-18.64 84.10-20.02Q86.64-21.40 89.88-21.40L89.88-21.40Q92.76-21.40 95.02-20.24Q97.28-19.08 98.52-16.88L98.52-16.88L95.60-15Q94.60-16.52 93.12-17.28Q91.64-18.04 89.84-18.04L89.84-18.04Q87.76-18.04 86.10-17.12Q84.44-16.20 83.50-14.50Q82.56-12.80 82.56-10.60L82.56-10.60Q82.56-8.36 83.50-6.66Q84.44-4.96 86.10-4.04Q87.76-3.12 89.84-3.12L89.84-3.12Q91.64-3.12 93.12-3.88Q94.60-4.64 95.60-6.16L95.60-6.16L98.52-4.32Q97.28-2.12 95.02-0.94Q92.76 0.24 89.88 0.24L89.88 0.24Z M114.24 0.24Q111.08 0.24 108.56-1.16Q106.04-2.56 104.62-5.02Q103.20-7.48 103.20-10.60L103.20-10.60Q103.20-13.72 104.62-16.18Q106.04-18.64 108.56-20.02Q111.08-21.40 114.24-21.40L114.24-21.40Q117.40-21.40 119.90-20.02Q122.40-18.64 123.82-16.18Q125.24-13.72 125.24-10.60L125.24-10.60Q125.24-7.48 123.82-5.02Q122.40-2.56 119.90-1.16Q117.40 0.24 114.24 0.24L114.24 0.24ZM114.24-3.12Q116.28-3.12 117.90-4.06Q119.52-5 120.44-6.70Q121.36-8.40 121.36-10.60L121.36-10.60Q121.36-12.80 120.44-14.50Q119.52-16.20 117.90-17.12Q116.28-18.04 114.24-18.04L114.24-18.04Q112.20-18.04 110.58-17.12Q108.96-16.20 108.02-14.50Q107.08-12.80 107.08-10.60L107.08-10.60Q107.08-8.40 108.02-6.70Q108.96-5 110.58-4.06Q112.20-3.12 114.24-3.12L114.24-3.12Z M159.08-21.40Q163.08-21.40 165.42-19.08Q167.76-16.76 167.76-12.20L167.76-12.20L167.76 0L163.92 0L163.92-11.76Q163.92-14.84 162.50-16.40Q161.08-17.96 158.44-17.96L158.44-17.96Q155.52-17.96 153.80-16.14Q152.08-14.32 152.08-10.92L152.08-10.92L152.08 0L148.24 0L148.24-11.76Q148.24-14.84 146.82-16.40Q145.40-17.96 142.76-17.96L142.76-17.96Q139.84-17.96 138.12-16.14Q136.40-14.32 136.40-10.92L136.40-10.92L136.40 0L132.56 0L132.56-21.20L136.24-21.20L136.24-18.04Q137.40-19.68 139.28-20.54Q141.16-21.40 143.56-21.40L143.56-21.40Q146.04-21.40 147.96-20.40Q149.88-19.40 150.92-17.48L150.92-17.48Q152.12-19.32 154.26-20.36Q156.40-21.40 159.08-21.40L159.08-21.40Z M196.12-10.48Q196.12-10.04 196.04-9.32L196.04-9.32L178.84-9.32Q179.20-6.52 181.30-4.82Q183.40-3.12 186.52-3.12L186.52-3.12Q190.32-3.12 192.64-5.68L192.64-5.68L194.76-3.20Q193.32-1.52 191.18-0.64Q189.04 0.24 186.40 0.24L186.40 0.24Q183.04 0.24 180.44-1.14Q177.84-2.52 176.42-5Q175.00-7.48 175.00-10.60L175.00-10.60Q175.00-13.68 176.38-16.16Q177.76-18.64 180.18-20.02Q182.60-21.40 185.64-21.40L185.64-21.40Q188.68-21.40 191.06-20.02Q193.44-18.64 194.78-16.16Q196.12-13.68 196.12-10.48L196.12-10.48ZM185.64-18.16Q182.88-18.16 181.02-16.48Q179.16-14.80 178.84-12.08L178.84-12.08L192.44-12.08Q192.12-14.76 190.26-16.46Q188.40-18.16 185.64-18.16L185.64-18.16Z M226.92-4L228.12-1.24Q227.28-0.52 226.04-0.14Q224.80 0.24 223.48 0.24L223.48 0.24Q220.28 0.24 218.52-1.48Q216.76-3.20 216.76-6.40L216.76-6.40L216.76-18.04L213.16-18.04L213.16-21.20L216.76-21.20L216.76-25.84L220.60-25.84L220.60-21.20L226.68-21.20L226.68-18.04L220.60-18.04L220.60-6.56Q220.60-4.84 221.46-3.92Q222.32-3 223.92-3L223.92-3Q225.68-3 226.92-4L226.92-4Z M243.12 0.24Q239.96 0.24 237.44-1.16Q234.92-2.56 233.50-5.02Q232.08-7.48 232.08-10.60L232.08-10.60Q232.08-13.72 233.50-16.18Q234.92-18.64 237.44-20.02Q239.96-21.40 243.12-21.40L243.12-21.40Q246.28-21.40 248.78-20.02Q251.28-18.64 252.70-16.18Q254.12-13.72 254.12-10.60L254.12-10.60Q254.12-7.48 252.70-5.02Q251.28-2.56 248.78-1.16Q246.28 0.24 243.12 0.24L243.12 0.24ZM243.12-3.12Q245.16-3.12 246.78-4.06Q248.40-5 249.32-6.70Q250.24-8.40 250.24-10.60L250.24-10.60Q250.24-12.80 249.32-14.50Q248.40-16.20 246.78-17.12Q245.16-18.04 243.12-18.04L243.12-18.04Q241.08-18.04 239.46-17.12Q237.84-16.20 236.90-14.50Q235.96-12.80 235.96-10.60L235.96-10.60Q235.96-8.40 236.90-6.70Q237.84-5 239.46-4.06Q241.08-3.12 243.12-3.12L243.12-3.12Z M289.20-21.20L292.96-21.20L282.68 2.12Q281.32 5.36 279.50 6.68Q277.68 8 275.12 8L275.12 8Q273.56 8 272.10 7.50Q270.64 7 269.68 6.04L269.68 6.04L271.32 3.16Q272.96 4.72 275.12 4.72L275.12 4.72Q276.52 4.72 277.46 3.98Q278.40 3.24 279.16 1.44L279.16 1.44L279.84-0.04L270.48-21.20L274.48-21.20L281.88-4.24L289.20-21.20Z M307.04 0.24Q303.88 0.24 301.36-1.16Q298.84-2.56 297.42-5.02Q296-7.48 296-10.60L296-10.60Q296-13.72 297.42-16.18Q298.84-18.64 301.36-20.02Q303.88-21.40 307.04-21.40L307.04-21.40Q310.20-21.40 312.70-20.02Q315.20-18.64 316.62-16.18Q318.04-13.72 318.04-10.60L318.04-10.60Q318.04-7.48 316.62-5.02Q315.20-2.56 312.70-1.16Q310.20 0.24 307.04 0.24L307.04 0.24ZM307.04-3.12Q309.08-3.12 310.70-4.06Q312.32-5 313.24-6.70Q314.16-8.40 314.16-10.60L314.16-10.60Q314.16-12.80 313.24-14.50Q312.32-16.20 310.70-17.12Q309.08-18.04 307.04-18.04L307.04-18.04Q305-18.04 303.38-17.12Q301.76-16.20 300.82-14.50Q299.88-12.80 299.88-10.60L299.88-10.60Q299.88-8.40 300.82-6.70Q301.76-5 303.38-4.06Q305-3.12 307.04-3.12L307.04-3.12Z M341.28-21.20L345.12-21.20L345.12 0L341.48 0L341.48-3.20Q340.32-1.56 338.42-0.66Q336.52 0.24 334.28 0.24L334.28 0.24Q330.04 0.24 327.60-2.10Q325.16-4.44 325.16-9L325.16-9L325.16-21.20L329.00-21.20L329.00-9.44Q329.00-6.36 330.48-4.78Q331.96-3.20 334.72-3.20L334.72-3.20Q337.76-3.20 339.52-5.04Q341.28-6.88 341.28-10.24L341.28-10.24L341.28-21.20Z M358.12-17.64Q359.12-19.48 361.08-20.44Q363.04-21.40 365.84-21.40L365.84-21.40L365.84-17.68Q365.52-17.72 364.96-17.72L364.96-17.72Q361.84-17.72 360.06-15.86Q358.28-14 358.28-10.56L358.28-10.56L358.28 0L354.44 0L354.44-21.20L358.12-21.20L358.12-17.64Z M401.76-29.68L405.60-29.68L405.60 0L401.92 0L401.92-3.36Q400.64-1.60 398.68-0.68Q396.72 0.24 394.36 0.24L394.36 0.24Q391.28 0.24 388.84-1.12Q386.40-2.48 385.02-4.94Q383.64-7.40 383.64-10.60L383.64-10.60Q383.64-13.80 385.02-16.24Q386.40-18.68 388.84-20.04Q391.28-21.40 394.36-21.40L394.36-21.40Q396.64-21.40 398.56-20.54Q400.48-19.68 401.76-18L401.76-18L401.76-29.68ZM394.68-3.12Q396.68-3.12 398.32-4.06Q399.96-5 400.88-6.70Q401.80-8.40 401.80-10.60L401.80-10.60Q401.80-12.80 400.88-14.50Q399.96-16.20 398.32-17.12Q396.68-18.04 394.68-18.04L394.68-18.04Q392.64-18.04 391.02-17.12Q389.40-16.20 388.46-14.50Q387.52-12.80 387.52-10.60L387.52-10.60Q387.52-8.40 388.46-6.70Q389.40-5 391.02-4.06Q392.64-3.12 394.68-3.12L394.68-3.12Z M418.56-17.64Q419.56-19.48 421.52-20.44Q423.48-21.40 426.28-21.40L426.28-21.40L426.28-17.68Q425.96-17.72 425.40-17.72L425.40-17.72Q422.28-17.72 420.50-15.86Q418.72-14 418.72-10.56L418.72-10.56L418.72 0L414.88 0L414.88-21.20L418.56-21.20L418.56-17.64Z M451.96-10.48Q451.96-10.04 451.88-9.32L451.88-9.32L434.68-9.32Q435.04-6.52 437.14-4.82Q439.24-3.12 442.36-3.12L442.36-3.12Q446.16-3.12 448.48-5.68L448.48-5.68L450.60-3.20Q449.16-1.52 447.02-0.64Q444.88 0.24 442.24 0.24L442.24 0.24Q438.88 0.24 436.28-1.14Q433.68-2.52 432.26-5Q430.84-7.48 430.84-10.60L430.84-10.60Q430.84-13.68 432.22-16.16Q433.60-18.64 436.02-20.02Q438.44-21.40 441.48-21.40L441.48-21.40Q444.52-21.40 446.90-20.02Q449.28-18.64 450.62-16.16Q451.96-13.68 451.96-10.48L451.96-10.48ZM441.48-18.16Q438.72-18.16 436.86-16.48Q435.00-14.80 434.68-12.08L434.68-12.08L448.28-12.08Q447.96-14.76 446.10-16.46Q444.24-18.16 441.48-18.16L441.48-18.16Z M466.40-21.40Q470.80-21.40 473.14-19.24Q475.48-17.08 475.48-12.80L475.48-12.80L475.48 0L471.84 0L471.84-2.80Q470.88-1.32 469.10-0.54Q467.32 0.24 464.88 0.24L464.88 0.24Q461.32 0.24 459.18-1.48Q457.04-3.20 457.04-6L457.04-6Q457.04-8.80 459.08-10.50Q461.12-12.20 465.56-12.20L465.56-12.20L471.64-12.20L471.64-12.96Q471.64-15.44 470.20-16.76Q468.76-18.08 465.96-18.08L465.96-18.08Q464.08-18.08 462.28-17.46Q460.48-16.84 459.24-15.80L459.24-15.80L457.64-18.68Q459.28-20 461.56-20.70Q463.84-21.40 466.40-21.40L466.40-21.40ZM465.52-2.72Q467.72-2.72 469.32-3.70Q470.92-4.68 471.64-6.48L471.64-6.48L471.64-9.44L465.72-9.44Q460.84-9.44 460.84-6.16L460.84-6.16Q460.84-4.56 462.08-3.64Q463.32-2.72 465.52-2.72L465.52-2.72Z M511.12-21.40Q515.12-21.40 517.46-19.08Q519.80-16.76 519.80-12.20L519.80-12.20L519.80 0L515.96 0L515.96-11.76Q515.96-14.84 514.54-16.40Q513.12-17.96 510.48-17.96L510.48-17.96Q507.56-17.96 505.84-16.14Q504.12-14.32 504.12-10.92L504.12-10.92L504.12 0L500.28 0L500.28-11.76Q500.28-14.84 498.86-16.40Q497.44-17.96 494.80-17.96L494.80-17.96Q491.88-17.96 490.16-16.14Q488.44-14.32 488.44-10.92L488.44-10.92L488.44 0L484.60 0L484.60-21.20L488.28-21.20L488.28-18.04Q489.44-19.68 491.32-20.54Q493.20-21.40 495.60-21.40L495.60-21.40Q498.08-21.40 500.00-20.40Q501.92-19.40 502.96-17.48L502.96-17.48Q504.16-19.32 506.30-20.36Q508.44-21.40 511.12-21.40L511.12-21.40Z M557.80-29.68L561.64-29.68L561.64 0L557.96 0L557.96-3.36Q556.68-1.60 554.72-0.68Q552.76 0.24 550.40 0.24L550.40 0.24Q547.32 0.24 544.88-1.12Q542.44-2.48 541.06-4.94Q539.68-7.40 539.68-10.60L539.68-10.60Q539.68-13.80 541.06-16.24Q542.44-18.68 544.88-20.04Q547.32-21.40 550.40-21.40L550.40-21.40Q552.68-21.40 554.60-20.54Q556.52-19.68 557.80-18L557.80-18L557.80-29.68ZM550.72-3.12Q552.72-3.12 554.36-4.06Q556.00-5 556.92-6.70Q557.84-8.40 557.84-10.60L557.84-10.60Q557.84-12.80 556.92-14.50Q556.00-16.20 554.36-17.12Q552.72-18.04 550.72-18.04L550.72-18.04Q548.68-18.04 547.06-17.12Q545.44-16.20 544.50-14.50Q543.56-12.80 543.56-10.60L543.56-10.60Q543.56-8.40 544.50-6.70Q545.44-5 547.06-4.06Q548.68-3.12 550.72-3.12L550.72-3.12Z M590.08-10.48Q590.08-10.04 590.00-9.32L590.00-9.32L572.80-9.32Q573.16-6.52 575.26-4.82Q577.36-3.12 580.48-3.12L580.48-3.12Q584.28-3.12 586.60-5.68L586.60-5.68L588.72-3.20Q587.28-1.52 585.14-0.64Q583.00 0.24 580.36 0.24L580.36 0.24Q577.00 0.24 574.40-1.14Q571.80-2.52 570.38-5Q568.96-7.48 568.96-10.60L568.96-10.60Q568.96-13.68 570.34-16.16Q571.72-18.64 574.14-20.02Q576.56-21.40 579.60-21.40L579.60-21.40Q582.64-21.40 585.02-20.02Q587.40-18.64 588.74-16.16Q590.08-13.68 590.08-10.48L590.08-10.48ZM579.60-18.16Q576.84-18.16 574.98-16.48Q573.12-14.80 572.80-12.08L572.80-12.08L586.40-12.08Q586.08-14.76 584.22-16.46Q582.36-18.16 579.60-18.16L579.60-18.16Z M603.48 0.24Q600.88 0.24 598.48-0.46Q596.08-1.16 594.72-2.24L594.72-2.24L596.32-5.28Q597.72-4.28 599.72-3.68Q601.72-3.08 603.76-3.08L603.76-3.08Q608.80-3.08 608.80-5.96L608.80-5.96Q608.80-6.92 608.12-7.48Q607.44-8.04 606.42-8.30Q605.40-8.56 603.52-8.88L603.52-8.88Q600.96-9.28 599.34-9.80Q597.72-10.32 596.56-11.56Q595.40-12.80 595.40-15.04L595.40-15.04Q595.40-17.92 597.80-19.66Q600.20-21.40 604.24-21.40L604.24-21.40Q606.36-21.40 608.48-20.88Q610.60-20.36 611.96-19.48L611.96-19.48L610.32-16.44Q607.72-18.12 604.20-18.12L604.20-18.12Q601.76-18.12 600.48-17.32Q599.20-16.52 599.20-15.20L599.20-15.20Q599.20-14.16 599.92-13.56Q600.64-12.96 601.70-12.68Q602.76-12.40 604.68-12.04L604.68-12.04Q607.24-11.60 608.82-11.10Q610.40-10.60 611.52-9.40Q612.64-8.20 612.64-6.04L612.64-6.04Q612.64-3.16 610.18-1.46Q607.72 0.24 603.48 0.24L603.48 0.24Z M630.16-4L631.36-1.24Q630.52-0.52 629.28-0.14Q628.04 0.24 626.72 0.24L626.72 0.24Q623.52 0.24 621.76-1.48Q620.00-3.20 620.00-6.40L620.00-6.40L620.00-18.04L616.40-18.04L616.40-21.20L620.00-21.20L620.00-25.84L623.84-25.84L623.84-21.20L629.92-21.20L629.92-18.04L623.84-18.04L623.84-6.56Q623.84-4.84 624.70-3.92Q625.56-3 627.16-3L627.16-3Q628.92-3 630.16-4L630.16-4Z M638.00 0L638.00-21.20L641.84-21.20L641.84 0L638.00 0ZM639.92-25.28Q638.80-25.28 638.06-26Q637.32-26.72 637.32-27.76L637.32-27.76Q637.32-28.80 638.06-29.54Q638.80-30.28 639.92-30.28L639.92-30.28Q641.04-30.28 641.78-29.58Q642.52-28.88 642.52-27.84L642.52-27.84Q642.52-26.76 641.78-26.02Q641.04-25.28 639.92-25.28L639.92-25.28Z M662.48-21.40Q666.52-21.40 668.90-19.06Q671.28-16.72 671.28-12.20L671.28-12.20L671.28 0L667.44 0L667.44-11.76Q667.44-14.84 665.96-16.40Q664.48-17.96 661.72-17.96L661.72-17.96Q658.60-17.96 656.80-16.14Q655.00-14.32 655.00-10.92L655.00-10.92L655.00 0L651.16 0L651.16-21.20L654.84-21.20L654.84-18Q656.00-19.64 657.98-20.52Q659.96-21.40 662.48-21.40L662.48-21.40Z M688.12-21.40Q692.52-21.40 694.86-19.24Q697.20-17.08 697.20-12.80L697.20-12.80L697.20 0L693.56 0L693.56-2.80Q692.60-1.32 690.82-0.54Q689.04 0.24 686.60 0.24L686.60 0.24Q683.04 0.24 680.90-1.48Q678.76-3.20 678.76-6L678.76-6Q678.76-8.80 680.80-10.50Q682.84-12.20 687.28-12.20L687.28-12.20L693.36-12.20L693.36-12.96Q693.36-15.44 691.92-16.76Q690.48-18.08 687.68-18.08L687.68-18.08Q685.80-18.08 684.00-17.46Q682.20-16.84 680.96-15.80L680.96-15.80L679.36-18.68Q681.00-20 683.28-20.70Q685.56-21.40 688.12-21.40L688.12-21.40ZM687.24-2.72Q689.44-2.72 691.04-3.70Q692.64-4.68 693.36-6.48L693.36-6.48L693.36-9.44L687.44-9.44Q682.56-9.44 682.56-6.16L682.56-6.16Q682.56-4.56 683.80-3.64Q685.04-2.72 687.24-2.72L687.24-2.72Z M717.04-4L718.24-1.24Q717.40-0.52 716.16-0.14Q714.92 0.24 713.60 0.24L713.60 0.24Q710.40 0.24 708.64-1.48Q706.88-3.20 706.88-6.40L706.88-6.40L706.88-18.04L703.28-18.04L703.28-21.20L706.88-21.20L706.88-25.84L710.72-25.84L710.72-21.20L716.80-21.20L716.80-18.04L710.72-18.04L710.72-6.56Q710.72-4.84 711.58-3.92Q712.44-3 714.04-3L714.04-3Q715.80-3 717.04-4L717.04-4Z M724.88 0L724.88-21.20L728.72-21.20L728.72 0L724.88 0ZM726.80-25.28Q725.68-25.28 724.94-26Q724.20-26.72 724.20-27.76L724.20-27.76Q724.20-28.80 724.94-29.54Q725.68-30.28 726.80-30.28L726.80-30.28Q727.92-30.28 728.66-29.58Q729.40-28.88 729.40-27.84L729.40-27.84Q729.40-26.76 728.66-26.02Q727.92-25.28 726.80-25.28L726.80-25.28Z M747.12 0.24Q743.96 0.24 741.44-1.16Q738.92-2.56 737.50-5.02Q736.08-7.48 736.08-10.60L736.08-10.60Q736.08-13.72 737.50-16.18Q738.92-18.64 741.44-20.02Q743.96-21.40 747.12-21.40L747.12-21.40Q750.28-21.40 752.78-20.02Q755.28-18.64 756.70-16.18Q758.12-13.72 758.12-10.60L758.12-10.60Q758.12-7.48 756.70-5.02Q755.28-2.56 752.78-1.16Q750.28 0.24 747.12 0.24L747.12 0.24ZM747.12-3.12Q749.16-3.12 750.78-4.06Q752.40-5 753.32-6.70Q754.24-8.40 754.24-10.60L754.24-10.60Q754.24-12.80 753.32-14.50Q752.40-16.20 750.78-17.12Q749.16-18.04 747.12-18.04L747.12-18.04Q745.08-18.04 743.46-17.12Q741.84-16.20 740.90-14.50Q739.96-12.80 739.96-10.60L739.96-10.60Q739.96-8.40 740.90-6.70Q741.84-5 743.46-4.06Q745.08-3.12 747.12-3.12L747.12-3.12Z M776.76-21.40Q780.80-21.40 783.18-19.06Q785.56-16.72 785.56-12.20L785.56-12.20L785.56 0L781.72 0L781.72-11.76Q781.72-14.84 780.24-16.40Q778.76-17.96 776.00-17.96L776.00-17.96Q772.88-17.96 771.08-16.14Q769.28-14.32 769.28-10.92L769.28-10.92L769.28 0L765.44 0L765.44-21.20L769.12-21.20L769.12-18Q770.28-19.64 772.26-20.52Q774.24-21.40 776.76-21.40L776.76-21.40Z"/></g>
</svg>
</g><g opacity="1" transform="rotate(0 269.8848 273.0813)">
<svg width="352.7298" height="50" x="269.8848" y="273.0813" version="1.1" preserveAspectRatio="none" viewBox="2.88 -31.48 279.08 39.56">
  <g transform="matrix(1 0 0 1 0 0)" class="companyName"><path id="id-D6z1nYkh10" d="M30.44-21.84Q34.48-21.84 36.86-19.46Q39.24-17.08 39.24-12.32L39.24-12.32L39.24 0L33 0L33-11.36Q33-13.92 31.94-15.18Q30.88-16.44 28.92-16.44L28.92-16.44Q26.72-16.44 25.44-15.02Q24.16-13.60 24.16-10.80L24.16-10.80L24.16 0L17.92 0L17.92-11.36Q17.92-16.44 13.84-16.44L13.84-16.44Q11.68-16.44 10.40-15.02Q9.12-13.60 9.12-10.80L9.12-10.80L9.12 0L2.88 0L2.88-21.52L8.84-21.52L8.84-19.04Q10.04-20.40 11.78-21.12Q13.52-21.84 15.60-21.84L15.60-21.84Q17.88-21.84 19.72-20.94Q21.56-20.04 22.68-18.32L22.68-18.32Q24-20 26.02-20.92Q28.04-21.84 30.44-21.84L30.44-21.84Z M48.92 0L48.92-21.52L55.16-21.52L55.16 0L48.92 0ZM52.04-24.52Q50.32-24.52 49.24-25.52Q48.16-26.52 48.16-28L48.16-28Q48.16-29.48 49.24-30.48Q50.32-31.48 52.04-31.48L52.04-31.48Q53.76-31.48 54.84-30.52Q55.92-29.56 55.92-28.12L55.92-28.12Q55.92-26.56 54.84-25.54Q53.76-24.52 52.04-24.52L52.04-24.52Z M78.12-21.84Q82.12-21.84 84.58-19.44Q87.04-17.04 87.04-12.32L87.04-12.32L87.04 0L80.80 0L80.80-11.36Q80.80-13.92 79.68-15.18Q78.56-16.44 76.44-16.44L76.44-16.44Q74.08-16.44 72.68-14.98Q71.28-13.52 71.28-10.64L71.28-10.64L71.28 0L65.04 0L65.04-21.52L71-21.52L71-19Q72.24-20.36 74.08-21.10Q75.92-21.84 78.12-21.84L78.12-21.84Z M105.44-21.84Q110.44-21.84 113.12-19.46Q115.80-17.08 115.80-12.28L115.80-12.28L115.80 0L109.96 0L109.96-2.68Q108.20 0.32 103.40 0.32L103.40 0.32Q100.92 0.32 99.10-0.52Q97.28-1.36 96.32-2.84Q95.36-4.32 95.36-6.20L95.36-6.20Q95.36-9.20 97.62-10.92Q99.88-12.64 104.60-12.64L104.60-12.64L109.56-12.64Q109.56-14.68 108.32-15.78Q107.08-16.88 104.60-16.88L104.60-16.88Q102.88-16.88 101.22-16.34Q99.56-15.80 98.40-14.88L98.40-14.88L96.16-19.24Q97.92-20.48 100.38-21.16Q102.84-21.84 105.44-21.84L105.44-21.84ZM104.96-3.88Q106.56-3.88 107.80-4.62Q109.04-5.36 109.56-6.80L109.56-6.80L109.56-9L105.28-9Q101.44-9 101.44-6.48L101.44-6.48Q101.44-5.28 102.38-4.58Q103.32-3.88 104.96-3.88L104.96-3.88Z M137.72-5.44L139.40-1.04Q138.48-0.36 137.14-0.02Q135.80 0.32 134.32 0.32L134.32 0.32Q130.48 0.32 128.38-1.64Q126.28-3.60 126.28-7.40L126.28-7.40L126.28-16.24L122.96-16.24L122.96-21.04L126.28-21.04L126.28-26.28L132.52-26.28L132.52-21.04L137.88-21.04L137.88-16.24L132.52-16.24L132.52-7.48Q132.52-6.12 133.22-5.38Q133.92-4.64 135.20-4.64L135.20-4.64Q136.68-4.64 137.72-5.44L137.72-5.44Z M161.96-21.52L167.96-21.52L158.24 1.32Q156.76 5.04 154.58 6.56Q152.40 8.08 149.32 8.08L149.32 8.08Q147.64 8.08 146 7.56Q144.36 7.04 143.32 6.12L143.32 6.12L145.60 1.68Q146.32 2.32 147.26 2.68Q148.20 3.04 149.12 3.04L149.12 3.04Q150.40 3.04 151.20 2.42Q152 1.80 152.64 0.36L152.64 0.36L152.72 0.16L143.40-21.52L149.84-21.52L155.88-6.92L161.96-21.52Z M175.68 0.32Q174.04 0.32 172.92-0.80Q171.80-1.92 171.80-3.60L171.80-3.60Q171.80-5.32 172.92-6.38Q174.04-7.44 175.68-7.44L175.68-7.44Q177.32-7.44 178.44-6.38Q179.56-5.32 179.56-3.60L179.56-3.60Q179.56-1.92 178.44-0.80Q177.32 0.32 175.68 0.32L175.68 0.32Z M198.28 0.32Q194.84 0.32 192.10-1.10Q189.36-2.52 187.82-5.04Q186.28-7.56 186.28-10.76L186.28-10.76Q186.28-13.96 187.82-16.48Q189.36-19 192.10-20.42Q194.84-21.84 198.28-21.84L198.28-21.84Q201.68-21.84 204.22-20.42Q206.76-19 207.92-16.36L207.92-16.36L203.08-13.76Q201.40-16.72 198.24-16.72L198.24-16.72Q195.80-16.72 194.20-15.12Q192.60-13.52 192.60-10.76L192.60-10.76Q192.60-8 194.20-6.40Q195.80-4.80 198.24-4.80L198.24-4.80Q201.44-4.80 203.08-7.76L203.08-7.76L207.92-5.12Q206.76-2.56 204.22-1.12Q201.68 0.32 198.28 0.32L198.28 0.32Z M225.56 0.32Q222.16 0.32 219.46-1.10Q216.76-2.52 215.24-5.04Q213.72-7.56 213.72-10.76L213.72-10.76Q213.72-13.96 215.24-16.48Q216.76-19 219.46-20.42Q222.16-21.84 225.56-21.84L225.56-21.84Q228.96-21.84 231.64-20.42Q234.32-19 235.84-16.48Q237.36-13.96 237.36-10.76L237.36-10.76Q237.36-7.56 235.84-5.04Q234.32-2.52 231.64-1.10Q228.96 0.32 225.56 0.32L225.56 0.32ZM225.56-4.80Q227.96-4.80 229.50-6.42Q231.04-8.04 231.04-10.76L231.04-10.76Q231.04-13.48 229.50-15.10Q227.96-16.72 225.56-16.72L225.56-16.72Q223.16-16.72 221.60-15.10Q220.04-13.48 220.04-10.76L220.04-10.76Q220.04-8.04 221.60-6.42Q223.16-4.80 225.56-4.80L225.56-4.80Z M273.16-21.84Q277.20-21.84 279.58-19.46Q281.96-17.08 281.96-12.32L281.96-12.32L281.96 0L275.72 0L275.72-11.36Q275.72-13.92 274.66-15.18Q273.60-16.44 271.64-16.44L271.64-16.44Q269.44-16.44 268.16-15.02Q266.88-13.60 266.88-10.80L266.88-10.80L266.88 0L260.64 0L260.64-11.36Q260.64-16.44 256.56-16.44L256.56-16.44Q254.40-16.44 253.12-15.02Q251.84-13.60 251.84-10.80L251.84-10.80L251.84 0L245.60 0L245.60-21.52L251.56-21.52L251.56-19.04Q252.76-20.40 254.50-21.12Q256.24-21.84 258.32-21.84L258.32-21.84Q260.60-21.84 262.44-20.94Q264.28-20.04 265.40-18.32L265.40-18.32Q266.72-20 268.74-20.92Q270.76-21.84 273.16-21.84L273.16-21.84Z"/></g>
</svg>
</g><g opacity="1" transform="rotate(0 375.7038 95.3445)">
<svg width="141.0919" height="137.7368" x="375.7038" y="95.3445" version="1.1" preserveAspectRatio="none" viewBox="5.120401382446289 6.187600135803223 89.75889587402344 87.62439727783203">
  <g transform="matrix(1 0 0 1 0 0)" class="icon1"><path d="m7.1758 8.2422v2.1797c0 1.1992 0.97656 2.1797 2.1797 2.1797h39.137c1.1992 0 2.1797-0.97656 2.1797-2.1797v-2.1797zm41.316 6.4141h-39.137c-2.332 0-4.2344-1.8984-4.2344-4.2344v-3.207c0-0.56641 0.46094-1.0273 1.0273-1.0273h45.551c0.56641 0 1.0273 0.46094 1.0273 1.0273v3.207c0 2.332-1.8984 4.2344-4.2344 4.2344z" fill-rule="evenodd"></path><path d="m48.613 93.812h-39.375c-0.56641 0-1.0273-0.46094-1.0273-1.0273v-79.156c0-0.56641 0.46094-1.0273 1.0273-1.0273 0.56641 0 1.0273 0.46094 1.0273 1.0273v78.129h37.32v-78.129c0-0.56641 0.46094-1.0273 1.0273-1.0273 0.56641 0 1.0273 0.46094 1.0273 1.0273v79.156c0 0.56641-0.46094 1.0273-1.0273 1.0273z" fill-rule="evenodd"></path><path d="m17.133 28.301h6.6055v-7.1641h-6.6055zm7.6328 2.0547h-8.6641c-0.56641 0-1.0273-0.46094-1.0273-1.0273v-9.2188c0-0.56641 0.46094-1.0273 1.0273-1.0273h8.6641c0.56641 0 1.0273 0.46094 1.0273 1.0273v9.2188c0 0.56641-0.46094 1.0273-1.0273 1.0273z" fill-rule="evenodd"></path><path d="m34.109 28.301h6.6055v-7.1641h-6.6055zm7.6328 2.0547h-8.6602c-0.56641 0-1.0273-0.46094-1.0273-1.0273v-9.2188c0-0.56641 0.46094-1.0273 1.0273-1.0273h8.6641c0.56641 0 1.0273 0.46094 1.0273 1.0273v9.2188c0 0.56641-0.46094 1.0273-1.0273 1.0273z" fill-rule="evenodd"></path><path d="m34.109 63.418h6.6055v-7.1641h-6.6055zm7.6328 2.0547h-8.6602c-0.56641 0-1.0273-0.45703-1.0273-1.0273v-9.2188c0-0.56641 0.46094-1.0273 1.0273-1.0273h8.6641c0.56641 0 1.0273 0.46094 1.0273 1.0273v9.2188c0 0.56641-0.46094 1.0273-1.0273 1.0273z" fill-rule="evenodd"></path><path d="m17.496 63.418h6.6055v-7.1641h-6.6055zm7.6328 2.0547h-8.6641c-0.56641 0-1.0273-0.45703-1.0273-1.0273v-9.2188c0-0.56641 0.46094-1.0273 1.0273-1.0273h8.6641c0.56641 0 1.0273 0.46094 1.0273 1.0273v9.2188c0 0.56641-0.46094 1.0273-1.0273 1.0273z" fill-rule="evenodd"></path><path d="m34.109 45.859h6.6055v-7.1641h-6.6055zm7.6328 2.0547h-8.6602c-0.56641 0-1.0273-0.46094-1.0273-1.0273v-9.2188c0-0.56641 0.46094-1.0273 1.0273-1.0273h8.6641c0.56641 0 1.0273 0.46094 1.0273 1.0273v9.2188c0 0.56641-0.46094 1.0273-1.0273 1.0273z" fill-rule="evenodd"></path><path d="m17.496 45.859h6.6055v-7.1641h-6.6055zm7.6328 2.0547h-8.6641c-0.56641 0-1.0273-0.46094-1.0273-1.0273v-9.2188c0-0.56641 0.46094-1.0273 1.0273-1.0273h8.6641c0.56641 0 1.0273 0.46094 1.0273 1.0273v9.2188c0 0.56641-0.46094 1.0273-1.0273 1.0273z" fill-rule="evenodd"></path><path d="m93.852 93.812h-45.238c-0.56641 0-1.0273-0.45703-1.0273-1.0273 0-0.56641 0.46094-1.0273 1.0273-1.0273h44.211v-28.176h-44.211c-0.56641 0-1.0273-0.45703-1.0273-1.0273 0-0.56641 0.46094-1.0273 1.0273-1.0273h45.238c0.56641 0 1.0273 0.46094 1.0273 1.0273v30.23c0 0.57031-0.46094 1.0273-1.0273 1.0273z" fill-rule="evenodd"></path><path d="m76.93 93.812c-0.56641 0-1.0273-0.45703-1.0273-1.0273v-12.809h-9.9648v12.809c0 0.57031-0.46094 1.0273-1.0273 1.0273s-1.0273-0.45703-1.0273-1.0273v-13.836c0-0.57031 0.46094-1.0273 1.0273-1.0273h12.02c0.56641 0 1.0273 0.45703 1.0273 1.0273v13.836c0 0.57031-0.46094 1.0273-1.0273 1.0273z" fill-rule="evenodd"></path><path d="m58.691 70.762h6.1641v-2.6289h-6.1641zm7.1914 2.0547h-8.2188c-0.56641 0-1.0273-0.46094-1.0273-1.0273v-4.6836c0-0.56641 0.46094-1.0273 1.0273-1.0273h8.2188c0.57031 0 1.0273 0.46094 1.0273 1.0273v4.6836c0 0.56641-0.45703 1.0273-1.0273 1.0273z" fill-rule="evenodd"></path><path d="m77.609 70.762h6.1641v-2.6289h-6.1641zm7.1914 2.0547h-8.2188c-0.56641 0-1.0273-0.46094-1.0273-1.0273v-4.6836c0-0.56641 0.46094-1.0273 1.0273-1.0273h8.2188c0.56641 0 1.0273 0.46094 1.0273 1.0273v4.6836c0 0.56641-0.46094 1.0273-1.0273 1.0273z" fill-rule="evenodd"></path><path d="m20.895 84.68c-0.56641 0-1.0273-0.46094-1.0273-1.0273v-9.0078c0-0.56641 0.46094-1.0273 1.0273-1.0273 0.56641 0 1.0273 0.46094 1.0273 1.0273v9.0078c0 0.56641-0.46094 1.0273-1.0273 1.0273z" fill-rule="evenodd"></path><path d="m28.926 84.68c-0.56641 0-1.0273-0.46094-1.0273-1.0273v-9.0078c0-0.56641 0.46094-1.0273 1.0273-1.0273 0.56641 0 1.0273 0.46094 1.0273 1.0273v9.0078c0 0.56641-0.46094 1.0273-1.0273 1.0273z" fill-rule="evenodd"></path><path d="m36.953 84.68c-0.56641 0-1.0273-0.46094-1.0273-1.0273v-9.0078c0-0.56641 0.46094-1.0273 1.0273-1.0273s1.0273 0.46094 1.0273 1.0273v9.0078c0 0.56641-0.46094 1.0273-1.0273 1.0273z" fill-rule="evenodd"></path><path d="m55.918 61.527h31.168v-12.07h-31.168zm32.199 2.0547h-33.227c-0.56641 0-1.0273-0.45703-1.0273-1.0273v-14.125c0-0.56641 0.46094-1.0273 1.0273-1.0273h33.227c0.56641 0 1.0273 0.46094 1.0273 1.0273v14.125c0 0.57031-0.46094 1.0273-1.0273 1.0273z" fill-rule="evenodd"></path><path d="m81.242 54.43h-19.48c-0.57031 0-1.0273-0.45703-1.0273-1.0273 0-0.56641 0.45703-1.0273 1.0273-1.0273h19.48c0.56641 0 1.0273 0.46094 1.0273 1.0273 0 0.57031-0.46094 1.0273-1.0273 1.0273z" fill-rule="evenodd"></path><path d="m81.242 58.613h-19.48c-0.57031 0-1.0273-0.46094-1.0273-1.0273 0-0.56641 0.45703-1.0273 1.0273-1.0273h19.48c0.56641 0 1.0273 0.46094 1.0273 1.0273 0 0.56641-0.46094 1.0273-1.0273 1.0273z" fill-rule="evenodd"></path></g>
</svg>
</g></svg></svg>