<svg version="1.1" preserveAspectRatio="none" xmlns="http://www.w3.org/2000/svg" width="500" height="500" viewBox="0 0 500 500"><rect width="100%" height="100%" fill="#EFEFEF" fill-opacity="1"/><svg viewBox="90.7149 136.2904 360.7201 324.9524" width="333" height="299.98092482232073" x="83.5px" y="100.0095px" xmlns="http://www.w3.org/2000/svg" xmlns:xlink="http://www.w3.org/1999/xlink" preserveAspectRatio="none"><defs></defs><style>.aLgOaV3zRcolors-3 {fill:#861F0E;fill-opacity:1;}.aLgOaV3zRcolors-4 {fill:#736F82;fill-opacity:1;}.aLgOaV3zRcolors-5 {fill:#4E4B5B;fill-opacity:1;}.aLgOaV3zRcolors-6 {fill:#E74C32;fill-opacity:1;}.aLgOaV3zRcolors-7 {fill:#EFEFEF;fill-opacity:1;}.companyName {fill:#E74C32;fill-opacity:1;}.icon1 {fill:#2B1716;fill-opacity:1;}.icon2 {fill:#A66C32;fill-opacity:1;}.icon3 {fill:#F1C190;fill-opacity:1;}.icon3-str {stroke:#F1C190;stroke-opacity:1;}.text {fill:#E74C32;fill-opacity:1;}</style><g opacity="1" transform="rotate(0 126.0643 437.2428)">
<svg width="290.0212" height="24" x="126.0643" y="437.2428" version="1.1" preserveAspectRatio="none" viewBox="2.6 -30.56 460.12 38.08">
  <g transform="matrix(1 0 0 1 0 0)" class="text"><path id="id-6izo4zJp22" d="M18.72-25.20Q17.28-25.88 15.52-26.36Q13.76-26.84 12.08-26.84L12.08-26.84Q9.28-26.84 7.60-25.46Q5.92-24.08 5.92-21.92L5.92-21.92Q5.92-20.40 6.82-19.34Q7.72-18.28 9.12-17.58Q10.52-16.88 12.72-16.04L12.72-16.04Q15.12-15.16 16.70-14.24Q18.28-13.32 19.36-11.74Q20.44-10.16 20.44-7.68L20.44-7.68Q20.44-5.32 19.32-3.50Q18.20-1.68 16.18-0.68Q14.16 0.32 11.56 0.32L11.56 0.32Q7.04 0.32 2.60-2.60L2.60-2.60L3.52-4.20Q5-3.08 7.16-2.24Q9.32-1.40 11.36-1.40L11.36-1.40Q13.16-1.40 14.78-2.10Q16.40-2.80 17.42-4.22Q18.44-5.64 18.44-7.64L18.44-7.64Q18.44-9.52 17.50-10.80Q16.56-12.08 15.14-12.86Q13.72-13.64 11.56-14.44L11.56-14.44Q9.16-15.32 7.60-16.14Q6.04-16.96 4.98-18.32Q3.92-19.68 3.92-21.72L3.92-21.72Q3.92-23.72 4.94-25.26Q5.96-26.80 7.78-27.66Q9.60-28.52 11.84-28.56L11.84-28.56Q13.76-28.56 15.82-28.04Q17.88-27.52 19.48-26.72L19.48-26.72L18.72-25.20Z M32.36-22.52L34.28-22.52L34.28-15.44L39.12-15.44L39.12-13.92L34.28-13.92L34.28 0L32.36 0L32.36-13.92L29.04-13.92L29.04-15.44L32.36-15.44L32.36-22.52Z M61.36-15.64L63.04-15.64L63.04 0L61.16 0L61.16-3.32Q60.24-1.80 58.36-0.74Q56.48 0.32 54.28 0.32L54.28 0.32Q52.04 0.32 50.22-0.70Q48.40-1.72 47.34-3.58Q46.28-5.44 46.28-7.84L46.28-7.84Q46.28-10.40 47.38-12.26Q48.48-14.12 50.42-15.12Q52.36-16.12 54.80-16.12L54.80-16.12Q56.72-16.12 58.48-15.04Q60.24-13.96 61.16-12.24L61.16-12.24L61.36-15.64ZM54.68-1.28Q57.32-1.28 59.16-2.92Q61-4.56 61.16-7.12L61.16-7.12L61.16-9.36Q60.68-11.56 58.84-13.04Q57-14.52 54.64-14.52L54.64-14.52Q52.84-14.52 51.36-13.70Q49.88-12.88 49.02-11.38Q48.16-9.88 48.16-7.92L48.16-7.92Q48.16-6.12 49.04-4.60Q49.92-3.08 51.42-2.18Q52.92-1.28 54.68-1.28L54.68-1.28Z M85.80-15.64L87.64-15.64L77.56 7.52L75.60 7.52L78.96-0.16L71.72-15.64L73.84-15.64L79.92-2.32L85.80-15.64Z M112.60-15.64L114.48-15.64L114.48 0L112.60 0L112.60-15.64ZM112.20-21.40Q112.20-21.96 112.62-22.34Q113.04-22.72 113.60-22.72L113.60-22.72Q114.16-22.72 114.56-22.34Q114.96-21.96 114.96-21.40L114.96-21.40Q114.96-20.80 114.56-20.42Q114.16-20.04 113.60-20.04L113.60-20.04Q113.04-20.04 112.62-20.44Q112.20-20.84 112.20-21.40L112.20-21.40Z M134-16.08Q136.16-16.08 137.52-14.78Q138.88-13.48 138.96-11.40L138.96-11.40L138.96 0L137.04 0L137.04-10.88Q136.96-12.44 136.04-13.42Q135.12-14.40 133.40-14.44L133.40-14.44Q131.80-14.44 130.46-13.68Q129.12-12.92 128.30-11.54Q127.48-10.16 127.48-8.40L127.48-8.40L127.48 0L125.60 0L125.60-15.64L127.24-15.64L127.40-12.16Q128.16-13.96 129.98-15.02Q131.80-16.08 134-16.08L134-16.08Z M186.80 0L183.08-9.40L170.56-9.40L166.80 0L164.84 0L176.84-29.64L177.00-29.64L189.00 0L186.80 0ZM171.28-11.24L182.36-11.24L176.88-25.20L171.28-11.24Z M199.48 0L199.48-13.88L196.76-13.88L196.76-15.60L199.48-15.60L199.48-23.48Q199.48-27.16 200.76-28.86Q202.04-30.56 204.64-30.56L204.64-30.56Q205.92-30.56 207-29.96L207-29.96L206.20-28.60Q205.68-29 204.80-29L204.80-29Q203.04-29 202.20-27.74Q201.36-26.48 201.36-23.52L201.36-23.52L201.36-15.60L206.60-15.60L206.60-13.88L201.36-13.88L201.36 0L199.48 0Z M217.20-11.92Q218.04-13.80 219.96-14.92Q221.88-16.04 223.80-16.08L223.80-16.08L223.72-14.24Q221.96-14.24 220.48-13.46Q219-12.68 218.14-11.30Q217.28-9.92 217.28-8.28L217.28-8.28L217.28 0L215.40 0L215.40-15.64L217.04-15.64L217.20-11.92Z M233.08-15.64L234.96-15.64L234.96 0L233.08 0L233.08-15.64ZM232.68-21.40Q232.68-21.96 233.10-22.34Q233.52-22.72 234.08-22.72L234.08-22.72Q234.64-22.72 235.04-22.34Q235.44-21.96 235.44-21.40L235.44-21.40Q235.44-20.80 235.04-20.42Q234.64-20.04 234.08-20.04L234.08-20.04Q233.52-20.04 233.10-20.44Q232.68-20.84 232.68-21.40L232.68-21.40Z M258.16-1.52Q257.08-0.64 255.70-0.16Q254.32 0.32 252.88 0.32L252.88 0.32Q250.52 0.32 248.62-0.74Q246.72-1.80 245.64-3.66Q244.56-5.52 244.56-7.84L244.56-7.84Q244.56-10.16 245.66-12.02Q246.76-13.88 248.64-14.94Q250.52-16 252.72-16L252.72-16Q255.96-16 258.20-14.16L258.20-14.16L257.20-12.88Q255.20-14.44 252.84-14.44L252.84-14.44Q251.08-14.44 249.62-13.56Q248.16-12.68 247.30-11.16Q246.44-9.64 246.44-7.84L246.44-7.84Q246.44-6.04 247.30-4.54Q248.16-3.04 249.66-2.16Q251.16-1.28 253-1.28L253-1.28Q255.24-1.28 257.12-2.68L257.12-2.68L258.16-1.52Z M280.96-15.64L282.64-15.64L282.64 0L280.76 0L280.76-3.32Q279.84-1.80 277.96-0.74Q276.08 0.32 273.88 0.32L273.88 0.32Q271.64 0.32 269.82-0.70Q268.00-1.72 266.94-3.58Q265.88-5.44 265.88-7.84L265.88-7.84Q265.88-10.40 266.98-12.26Q268.08-14.12 270.02-15.12Q271.96-16.12 274.40-16.12L274.40-16.12Q276.32-16.12 278.08-15.04Q279.84-13.96 280.76-12.24L280.76-12.24L280.96-15.64ZM274.28-1.28Q276.92-1.28 278.76-2.92Q280.60-4.56 280.76-7.12L280.76-7.12L280.76-9.36Q280.28-11.56 278.44-13.04Q276.60-14.52 274.24-14.52L274.24-14.52Q272.44-14.52 270.96-13.70Q269.48-12.88 268.62-11.38Q267.76-9.88 267.76-7.92L267.76-7.92Q267.76-6.12 268.64-4.60Q269.52-3.08 271.02-2.18Q272.52-1.28 274.28-1.28L274.28-1.28Z M302.16-16.08Q304.32-16.08 305.68-14.78Q307.04-13.48 307.12-11.40L307.12-11.40L307.12 0L305.20 0L305.20-10.88Q305.12-12.44 304.20-13.42Q303.28-14.40 301.56-14.44L301.56-14.44Q299.96-14.44 298.62-13.68Q297.28-12.92 296.46-11.54Q295.64-10.16 295.64-8.40L295.64-8.40L295.64 0L293.76 0L293.76-15.64L295.40-15.64L295.56-12.16Q296.32-13.96 298.14-15.02Q299.96-16.08 302.16-16.08L302.16-16.08Z M335.48-28.40L337.44-28.40L337.44-1.88L353.00-1.88L353.00 0L335.48 0L335.48-28.40Z M374.00-15.64L375.88-15.64L375.88 0L374.20 0L374.08-3.32Q373.32-1.68 371.48-0.62Q369.64 0.44 367.56 0.44L367.56 0.44Q365.40 0.44 364.06-0.86Q362.72-2.16 362.64-4.24L362.64-4.24L362.64-15.64L364.52-15.64L364.52-4.80Q364.60-3.20 365.52-2.24Q366.44-1.28 368.20-1.20L368.20-1.20Q369.72-1.20 371.06-2Q372.40-2.80 373.20-4.20Q374.00-5.60 374.00-7.32L374.00-7.32L374.00-15.64Z M398.52 0L396.28 0L391.40-6.52L386.76 0L384.76 0L390.40-7.84L384.56-15.64L386.92-15.64L391.76-9.12L396.24-15.64L398.20-15.64L392.68-7.88L398.52 0Z M418.56-15.64L420.44-15.64L420.44 0L418.76 0L418.64-3.32Q417.88-1.68 416.04-0.62Q414.20 0.44 412.12 0.44L412.12 0.44Q409.96 0.44 408.62-0.86Q407.28-2.16 407.20-4.24L407.20-4.24L407.20-15.64L409.08-15.64L409.08-4.80Q409.16-3.20 410.08-2.24Q411.00-1.28 412.76-1.20L412.76-1.20Q414.28-1.20 415.62-2Q416.96-2.80 417.76-4.20Q418.56-5.60 418.56-7.32L418.56-7.32L418.56-15.64Z M433.36-11.92Q434.20-13.80 436.12-14.92Q438.04-16.04 439.96-16.08L439.96-16.08L439.88-14.24Q438.12-14.24 436.64-13.46Q435.16-12.68 434.30-11.30Q433.44-9.92 433.44-8.28L433.44-8.28L433.44 0L431.56 0L431.56-15.64L433.20-15.64L433.36-11.92Z M460.88-15.64L462.72-15.64L452.64 7.52L450.68 7.52L454.04-0.16L446.80-15.64L448.92-15.64L455.00-2.32L460.88-15.64Z"/></g>
</svg>
</g><g opacity="1" transform="rotate(0 90.7149 355.2428)">
<svg width="360.7201" height="60" x="90.7149" y="355.2428" version="1.1" preserveAspectRatio="none" viewBox="3.08 -25.36 201.27999999999997 33.48">
  <g transform="matrix(1 0 0 1 0 0)" class="companyName"><path id="id-D6z1nYkh10" d="M25.04-17.68Q27.52-17.68 28.98-16.28Q30.44-14.88 30.52-12.60L30.52-12.60L30.52 0L26.08 0L26.08-10.88Q26-12.24 25.48-12.98Q24.96-13.72 23.76-13.80L23.76-13.80Q21.68-13.80 20.40-11.94Q19.12-10.08 19.08-7.60L19.08-7.60L19.08 0L14.56 0L14.56-10.88Q14.48-12.20 13.94-12.96Q13.40-13.72 12.16-13.80L12.16-13.80Q10.80-13.80 9.76-12.92Q8.72-12.04 8.14-10.60Q7.56-9.16 7.56-7.60L7.56-7.60L7.56 0L3.08 0L3.08-16.92L7.12-16.92L7.48-13.96Q8.44-15.76 10.08-16.72Q11.72-17.68 13.84-17.68L13.84-17.68Q15.88-17.68 17.26-16.78Q18.64-15.88 19.08-14.20L19.08-14.20Q20.12-15.84 21.72-16.76Q23.32-17.68 25.04-17.68L25.04-17.68Z M36.68-16.92L41.16-16.92L41.16 0L36.68 0L36.68-16.92ZM36.48-22.96Q36.48-23.96 37.28-24.66Q38.08-25.36 39.08-25.36L39.08-25.36Q40.04-25.36 40.82-24.66Q41.60-23.96 41.60-22.96L41.60-22.96Q41.60-21.96 40.82-21.28Q40.04-20.60 39.08-20.60L39.08-20.60Q38.08-20.60 37.28-21.28Q36.48-21.96 36.48-22.96L36.48-22.96Z M58.36-17.64Q60.72-17.64 62.30-16.22Q63.88-14.80 63.92-12.56L63.92-12.56L63.92 0L59.44 0L59.44-10.96Q59.36-12.28 58.66-13.04Q57.96-13.80 56.56-13.84L56.56-13.84Q54.48-13.84 53.14-12.06Q51.80-10.28 51.80-7.52L51.80-7.52L51.80 0L47.32 0L47.32-16.92L51.36-16.92L51.68-13.92Q52.60-15.68 54.34-16.66Q56.08-17.64 58.36-17.64L58.36-17.64Z M83.68-16.92L87.80-16.92L87.80 0L83.32 0L83.32-2.44Q82.40-1.36 80.84-0.46Q79.28 0.44 77.20 0.44L77.20 0.44Q74.76 0.44 72.84-0.58Q70.92-1.60 69.80-3.60Q68.68-5.60 68.68-8.44L68.68-8.44Q68.68-11.20 69.84-13.30Q71-15.40 72.94-16.54Q74.88-17.68 77.20-17.68L77.20-17.68Q81.32-17.68 83.36-14.64L83.36-14.64L83.68-16.92ZM78.44-3.24Q80.28-3.24 81.54-4.18Q82.80-5.12 83.32-6.84L83.32-6.84L83.32-10.52Q82.84-12.08 81.46-13.04Q80.08-14 78.28-14L78.28-14Q76.16-14 74.68-12.50Q73.20-11 73.20-8.68L73.20-8.68Q73.20-7.16 73.92-5.92Q74.64-4.68 75.84-3.96Q77.04-3.24 78.44-3.24L78.44-3.24Z M95.64-24.36L100.12-24.36L100.12-16.92L104.52-16.92L104.52-13.40L100.12-13.40L100.12 0L95.64 0L95.64-13.40L92.72-13.40L92.72-16.92L95.64-16.92L95.64-24.36Z M121.56-16.92L125.64-16.92L114.72 8.12L110.32 8.12L114.28-0.72L106.44-16.92L111.48-16.92L116.52-5.72L121.56-16.92Z M127.28-2.44Q127.28-3.44 128.02-4.16Q128.76-4.88 129.72-4.88L129.72-4.88Q130.60-4.88 131.34-4.16Q132.08-3.44 132.08-2.44L132.08-2.44Q132.08-1.40 131.34-0.70Q130.60 0 129.72 0L129.72 0Q128.76 0 128.02-0.68Q127.28-1.36 127.28-2.44L127.28-2.44Z M150.12-1.56Q149.00-0.64 147.38-0.10Q145.76 0.44 144.12 0.44L144.12 0.44Q141.32 0.44 139.18-0.64Q137.04-1.72 135.88-3.74Q134.72-5.76 134.72-8.48L134.72-8.48Q134.72-11.16 135.96-13.18Q137.20-15.20 139.26-16.28Q141.32-17.36 143.68-17.36L143.68-17.36Q147.68-17.36 150.28-15.20L150.28-15.20L148.04-12.28Q147.28-12.88 146.26-13.30Q145.24-13.72 144.08-13.72L144.08-13.72Q142.04-13.72 140.62-12.22Q139.20-10.72 139.20-8.48L139.20-8.48Q139.20-6.24 140.70-4.74Q142.20-3.24 144.52-3.24L144.52-3.24Q146.52-3.24 147.88-4.36L147.88-4.36L150.12-1.56Z M153.32-8.64Q153.32-11.16 154.54-13.24Q155.76-15.32 157.92-16.50Q160.08-17.68 162.84-17.68L162.84-17.68Q165.60-17.68 167.74-16.50Q169.88-15.32 171.04-13.26Q172.20-11.20 172.20-8.64L172.20-8.64Q172.20-6.08 171.04-4.02Q169.88-1.96 167.74-0.76Q165.60 0.44 162.80 0.44L162.80 0.44Q160.08 0.44 157.92-0.66Q155.76-1.76 154.54-3.82Q153.32-5.88 153.32-8.64L153.32-8.64ZM157.84-8.60Q157.84-6.32 159.24-4.78Q160.64-3.24 162.72-3.24L162.72-3.24Q164.88-3.24 166.26-4.76Q167.64-6.28 167.64-8.60L167.64-8.60Q167.64-10.92 166.26-12.46Q164.88-14 162.72-14L162.72-14Q160.64-14 159.24-12.42Q157.84-10.84 157.84-8.60L157.84-8.60Z M198.88-17.68Q201.36-17.68 202.82-16.28Q204.28-14.88 204.36-12.60L204.36-12.60L204.36 0L199.92 0L199.92-10.88Q199.84-12.24 199.32-12.98Q198.80-13.72 197.60-13.80L197.60-13.80Q195.52-13.80 194.24-11.94Q192.96-10.08 192.92-7.60L192.92-7.60L192.92 0L188.40 0L188.40-10.88Q188.32-12.20 187.78-12.96Q187.24-13.72 186-13.80L186-13.80Q184.64-13.80 183.60-12.92Q182.56-12.04 181.98-10.60Q181.40-9.16 181.40-7.60L181.40-7.60L181.40 0L176.92 0L176.92-16.92L180.96-16.92L181.32-13.96Q182.28-15.76 183.92-16.72Q185.56-17.68 187.68-17.68L187.68-17.68Q189.72-17.68 191.10-16.78Q192.48-15.88 192.92-14.20L192.92-14.20Q193.96-15.84 195.56-16.76Q197.16-17.68 198.88-17.68L198.88-17.68Z"/></g>
</svg>
</g><g opacity="1" transform="rotate(0 180.895 136.2904)">
<svg width="180.36" height="188.9524" x="180.895" y="136.2904" version="1.1" preserveAspectRatio="none" viewBox="4.623594760894775 2.4245975017547607 90.7528076171875 95.0762939453125">
  <g transform="matrix(1 0 0 1 0 0)" class="icon1"><g><path d="m76.602 50.102c-2.3008 0-4.3008 1.8984-4.3008 4.3008v28.5c0 3.3984-2.6992 6.1016-6.1016 6.1016l-32.5-0.003906c-3.3984 0-6.1016-2.6992-6.1016-6.1016l0.003906-28.5c0-2.3008-1.8984-4.3008-4.3008-4.3008-2.3984 0-4.3008 1.8984-4.3008 4.3008v28.5c0 8.1016 6.6016 14.602 14.602 14.602h32.5c8.1016 0 14.602-6.6016 14.602-14.602l-0.003906-28.5c0.19922-2.3984-1.6992-4.2969-4.0977-4.2969z"></path><path d="m94.102 44.898-41.102-41.199c-1.6992-1.6992-4.3984-1.6992-6 0l-41.102 41.199c-1.6992 1.6992-1.6992 4.3984 0 6 1.6992 1.6992 4.3984 1.6992 6 0l38.102-38.098 38.102 38.102c0.80078 0.80078 1.8984 1.1992 3 1.1992 1.1016 0 2.1992-0.39844 3-1.1992 1.6992-1.7031 1.6992-4.4023 0-6.0039z"></path></g></g>
</svg>
</g></svg></svg>