<svg version="1.1" preserveAspectRatio="none" xmlns="http://www.w3.org/2000/svg" width="500" height="500" viewBox="0 0 500 500"><rect width="100%" height="100%" fill="#FCF2E8" fill-opacity="1"/><svg viewBox="479.5058 342.9981 526.7843 104.4" width="333" height="65.99513311235737" x="83.5px" y="217.0024px" xmlns="http://www.w3.org/2000/svg" xmlns:xlink="http://www.w3.org/1999/xlink" preserveAspectRatio="none"><defs></defs><style>.aIptOCySncolors-3 {fill:#4348FF;fill-opacity:1;}.aIptOCySncolors-4 {fill:#FEA732;fill-opacity:1;}.aIptOCySncolors-5 {fill:#FF8965;fill-opacity:1;}.aIptOCySncolors-6 {fill:#FED532;fill-opacity:1;}.aIptOCySncolors-7 {fill:#C6CEFF;fill-opacity:1;}.companyName {fill:#FE6232;fill-opacity:1;}.icon1 {fill:#FE6232;fill-opacity:1;}.icon2 {fill:#9545ED;fill-opacity:1;}.icon3 {fill:#F41616;fill-opacity:1;}.icon3-str {stroke:#F41616;stroke-opacity:1;}.shape {fill:#FFFFFF;fill-opacity:1;}.shapeStroke-str {stroke:#FE6232;stroke-opacity:1;}.text {fill:#FE6232;fill-opacity:1;}</style><g opacity="1" transform="rotate(0 479.5058 342.9981)">
<svg width="104.4003" height="104.4" x="479.5058" y="342.9981" version="1.1" preserveAspectRatio="none" viewBox="0 0 104.4003 104.4">
  <defs><rect x="0" y="0" width="104.4003" height="104.4" rx="150px" ry="150px" id="id-5kldYRpCP1729147302049"></rect></defs><use class="shape shapeStroke-str" style="stroke-width:0;" xlink:href="#id-5kldYRpCP1729147302049"></use>
</svg>
</g><g opacity="1" transform="rotate(0 505.2121 367.9981)">
<svg width="52.9877" height="54.4" x="505.2121" y="367.9981" version="1.1" preserveAspectRatio="none" viewBox="4.70751953125 3.5084991455078125 90.5780029296875 92.99224853515625">
  <g transform="matrix(1 0 0 1 0 0)" class="icon1"><path d="m56.387 12.477v-5.9766h-13.023v11.879h13.023zm29.59 74.914c-3.7695-1.5195-5.6602-4.3125-5.6602-8.375 0-3.9688 1.9648-9.1758 5.8828-15.621 0.42969-0.70703 1.3516-0.92578 2.0547-0.49609 0.22266 0.13281 0.39453 0.31641 0.51562 0.52734 3.9102 6.4297 5.8672 11.629 5.8672 15.594 0 4.0625-1.8867 6.8555-5.6602 8.375v6.1055h4.8086c0.82812 0 1.5 0.67188 1.5 1.5s-0.67188 1.5-1.5 1.5h-87.578c-0.82812 0-1.5-0.67188-1.5-1.5s0.67188-1.5 1.5-1.5h4.8125v-6.1055c-3.7695-1.5195-5.6602-4.3125-5.6602-8.375 0-3.9688 1.9648-9.1758 5.8828-15.621 0.42969-0.70703 1.3516-0.92578 2.0547-0.49609 0.22266 0.13281 0.39453 0.31641 0.51562 0.52734 3.9102 6.4297 5.8672 11.629 5.8672 15.594 0 4.0625-1.8867 6.8555-5.6602 8.375v6.1055h8.6289v-8.5703c0-0.82812 0.67187-1.5 1.5-1.5 0.82812 0 1.5 0.67188 1.5 1.5v8.5703h14.836v-25.406c0-0.82812 0.67188-1.5 1.5-1.5h16.023c0.82813 0 1.5 0.67188 1.5 1.5v25.406h14.836v-79.559h-14.961v5.9414c0 0.82812-0.67187 1.5-1.5 1.5h-16.023c-0.82812 0-1.5-0.67188-1.5-1.5v-5.9414h-14.711v60.219c0 0.82813-0.67188 1.5-1.5 1.5-0.82813 0-1.5-0.67187-1.5-1.5v-61.719c0-0.82812 0.67187-1.5 1.5-1.5h16.211v-5.9375c0-0.82812 0.67188-1.5 1.5-1.5h16.023c0.82813 0 1.5 0.67188 1.5 1.5v5.9375h16.461c0.82812 0 1.5 0.67188 1.5 1.5v81.059h8.6328zm-2.6602-8.375c0 2.8164 1.3867 4.7305 4.1602 5.7422 2.7734-1.0117 4.1602-2.9297 4.1602-5.7422 0-2.9922-1.3867-6.9531-4.1602-11.883-2.7734 4.9297-4.1602 8.8945-4.1602 11.883zm-74.957 0c0 2.8164 1.3867 4.7305 4.1602 5.7422 2.7734-1.0117 4.1602-2.9297 4.1602-5.7422 0-2.9922-1.3867-6.9531-4.1602-11.883-2.7734 4.9297-4.1602 8.8945-4.1602 11.883zm52.902-26.566h8.5312c0.82812 0 1.5 0.67188 1.5 1.5v8.5312c0 0.82812-0.67188 1.5-1.5 1.5h-8.5312c-0.82812 0-1.5-0.67188-1.5-1.5v-8.5312c0-0.82812 0.67188-1.5 1.5-1.5zm7.0312 3h-5.5312v5.5312h5.5312zm-22.688-3h8.5312c0.82812 0 1.5 0.67188 1.5 1.5v8.5312c0 0.82812-0.67188 1.5-1.5 1.5h-8.5312c-0.82812 0-1.5-0.67188-1.5-1.5v-8.5312c0-0.82812 0.67188-1.5 1.5-1.5zm7.0312 3h-5.5312v5.5312h5.5312zm-22.688-3h8.5312c0.82812 0 1.5 0.67188 1.5 1.5v8.5312c0 0.82812-0.67188 1.5-1.5 1.5h-8.5312c-0.82812 0-1.5-0.67188-1.5-1.5v-8.5312c0-0.82812 0.67188-1.5 1.5-1.5zm7.0312 3h-5.5312v5.5312h5.5312zm24.277-17.23h8.5312c0.82813 0 1.5 0.67188 1.5 1.5v8.5312c0 0.82812-0.67187 1.5-1.5 1.5h-8.5312c-0.82812 0-1.5-0.67188-1.5-1.5v-8.5312c0-0.82812 0.67188-1.5 1.5-1.5zm7.0312 3h-5.5312v5.5312h5.5312zm-22.688-3h8.5312c0.82813 0 1.5 0.67188 1.5 1.5v8.5312c0 0.82812-0.67187 1.5-1.5 1.5h-8.5312c-0.82812 0-1.5-0.67188-1.5-1.5v-8.5312c0-0.82812 0.67188-1.5 1.5-1.5zm7.0312 3h-5.5312v5.5312h5.5312zm-22.688-3h8.5312c0.82813 0 1.5 0.67188 1.5 1.5v8.5312c0 0.82812-0.67187 1.5-1.5 1.5h-8.5312c-0.82812 0-1.5-0.67188-1.5-1.5v-8.5312c0-0.82812 0.67188-1.5 1.5-1.5zm7.0312 3h-5.5312v5.5312h5.5312zm24.277-17.23h8.5312c0.82812 0 1.5 0.67188 1.5 1.5v8.5312c0 0.82812-0.67188 1.5-1.5 1.5h-8.5312c-0.82812 0-1.5-0.67188-1.5-1.5v-8.5312c0-0.82812 0.67188-1.5 1.5-1.5zm7.0312 3h-5.5312v5.5312h5.5312zm-22.688-3h8.5312c0.82812 0 1.5 0.67188 1.5 1.5v8.5312c0 0.82812-0.67188 1.5-1.5 1.5h-8.5312c-0.82812 0-1.5-0.67188-1.5-1.5v-8.5312c0-0.82812 0.67188-1.5 1.5-1.5zm7.0312 3h-5.5312v5.5312h5.5312zm-22.688-3h8.5312c0.82812 0 1.5 0.67188 1.5 1.5v8.5312c0 0.82812-0.67188 1.5-1.5 1.5h-8.5312c-0.82812 0-1.5-0.67188-1.5-1.5v-8.5312c0-0.82812 0.67188-1.5 1.5-1.5zm7.0312 3h-5.5312v5.5312h5.5312zm19.527 42.605h-13.023v23.906h13.023zm-30.859 10.074c0 0.82812-0.67188 1.5-1.5 1.5s-1.5-0.67188-1.5-1.5v-0.24609c0-0.82812 0.67188-1.5 1.5-1.5s1.5 0.67188 1.5 1.5z"></path></g>
</svg>
</g><g opacity="1" transform="rotate(0 601.9061 426.9981)">
<svg width="404.384" height="20.4" x="601.9061" y="426.9981" version="1.1" preserveAspectRatio="none" viewBox="0.16 -30.88 771.68 38.92">
  <g transform="matrix(1 0 0 1 0 0)" class="text"><path id="id-6izo4zJp33" d="M32.16-21.36L36.60-21.36L28.72 0L23.92 0L18.40-14.72L12.80 0L8 0L0.16-21.36L4.88-21.36L10.52-5.60L16.40-21.36L20.60-21.36L26.36-5.52L32.16-21.36Z M60.72-10.56Q60.72-10.04 60.64-9.08L60.64-9.08L43.88-9.08Q44.32-6.72 46.18-5.34Q48.04-3.96 50.80-3.96L50.80-3.96Q54.32-3.96 56.60-6.28L56.60-6.28L59.28-3.20Q57.84-1.48 55.64-0.60Q53.44 0.28 50.68 0.28L50.68 0.28Q47.16 0.28 44.48-1.12Q41.80-2.52 40.34-5.02Q38.88-7.52 38.88-10.68L38.88-10.68Q38.88-13.80 40.30-16.30Q41.72-18.80 44.24-20.20Q46.76-21.60 49.92-21.60L49.92-21.60Q53.04-21.60 55.50-20.22Q57.96-18.84 59.34-16.34Q60.72-13.84 60.72-10.56L60.72-10.56ZM49.92-17.60Q47.52-17.60 45.86-16.18Q44.20-14.76 43.84-12.40L43.84-12.40L55.96-12.40Q55.64-14.72 54-16.16Q52.36-17.60 49.92-17.60L49.92-17.60Z M66.72 0L66.72-29.68L71.72-29.68L71.72 0L66.72 0Z M89.28 0.28Q85.96 0.28 83.32-1.12Q80.68-2.52 79.20-5.02Q77.72-7.52 77.72-10.68L77.72-10.68Q77.72-13.84 79.20-16.32Q80.68-18.80 83.30-20.20Q85.92-21.60 89.28-21.60L89.28-21.60Q92.44-21.60 94.82-20.32Q97.20-19.04 98.40-16.64L98.40-16.64L94.56-14.40Q93.64-15.88 92.26-16.62Q90.88-17.36 89.24-17.36L89.24-17.36Q86.44-17.36 84.60-15.54Q82.76-13.72 82.76-10.68L82.76-10.68Q82.76-7.64 84.58-5.82Q86.40-4 89.24-4L89.24-4Q90.88-4 92.26-4.74Q93.64-5.48 94.56-6.96L94.56-6.96L98.40-4.72Q97.16-2.32 94.78-1.02Q92.40 0.28 89.28 0.28L89.28 0.28Z M113.20 0.28Q109.96 0.28 107.36-1.12Q104.76-2.52 103.30-5.02Q101.84-7.52 101.84-10.68L101.84-10.68Q101.84-13.84 103.30-16.32Q104.76-18.80 107.36-20.20Q109.96-21.60 113.20-21.60L113.20-21.60Q116.48-21.60 119.08-20.20Q121.68-18.80 123.14-16.32Q124.60-13.84 124.60-10.68L124.60-10.68Q124.60-7.52 123.14-5.02Q121.68-2.52 119.08-1.12Q116.48 0.28 113.20 0.28L113.20 0.28ZM113.20-4Q115.96-4 117.76-5.84Q119.56-7.68 119.56-10.68L119.56-10.68Q119.56-13.68 117.76-15.52Q115.96-17.36 113.20-17.36L113.20-17.36Q110.44-17.36 108.66-15.52Q106.88-13.68 106.88-10.68L106.88-10.68Q106.88-7.68 108.66-5.84Q110.44-4 113.20-4L113.20-4Z M157.56-21.60Q161.60-21.60 163.96-19.26Q166.32-16.92 166.32-12.24L166.32-12.24L166.32 0L161.32 0L161.32-11.60Q161.32-14.40 160.08-15.82Q158.84-17.24 156.52-17.24L156.52-17.24Q154-17.24 152.48-15.58Q150.96-13.92 150.96-10.84L150.96-10.84L150.96 0L145.96 0L145.96-11.60Q145.96-14.40 144.72-15.82Q143.48-17.24 141.16-17.24L141.16-17.24Q138.60-17.24 137.10-15.60Q135.60-13.96 135.60-10.84L135.60-10.84L135.60 0L130.60 0L130.60-21.36L135.36-21.36L135.36-18.64Q136.56-20.08 138.36-20.84Q140.16-21.60 142.36-21.60L142.36-21.60Q144.76-21.60 146.62-20.70Q148.48-19.80 149.56-18.04L149.56-18.04Q150.88-19.72 152.96-20.66Q155.04-21.60 157.56-21.60L157.56-21.60Z M194.20-10.56Q194.20-10.04 194.12-9.08L194.12-9.08L177.36-9.08Q177.80-6.72 179.66-5.34Q181.52-3.96 184.28-3.96L184.28-3.96Q187.80-3.96 190.08-6.28L190.08-6.28L192.76-3.20Q191.32-1.48 189.12-0.60Q186.92 0.28 184.16 0.28L184.16 0.28Q180.64 0.28 177.96-1.12Q175.28-2.52 173.82-5.02Q172.36-7.52 172.36-10.68L172.36-10.68Q172.36-13.80 173.78-16.30Q175.20-18.80 177.72-20.20Q180.24-21.60 183.40-21.60L183.40-21.60Q186.52-21.60 188.98-20.22Q191.44-18.84 192.82-16.34Q194.20-13.84 194.20-10.56L194.20-10.56ZM183.40-17.60Q181.00-17.60 179.34-16.18Q177.68-14.76 177.32-12.40L177.32-12.40L189.44-12.40Q189.12-14.72 187.48-16.16Q185.84-17.60 183.40-17.60L183.40-17.60Z M223.88-4.72L225.28-1.16Q224.40-0.44 223.14-0.08Q221.88 0.28 220.48 0.28L220.48 0.28Q216.96 0.28 215.04-1.56Q213.12-3.40 213.12-6.92L213.12-6.92L213.12-17.20L209.60-17.20L209.60-21.20L213.12-21.20L213.12-26.08L218.12-26.08L218.12-21.20L223.84-21.20L223.84-17.20L218.12-17.20L218.12-7.04Q218.12-5.48 218.88-4.66Q219.64-3.84 221.08-3.84L221.08-3.84Q222.76-3.84 223.88-4.72L223.88-4.72Z M239.48 0.28Q236.24 0.28 233.64-1.12Q231.04-2.52 229.58-5.02Q228.12-7.52 228.12-10.68L228.12-10.68Q228.12-13.84 229.58-16.32Q231.04-18.80 233.64-20.20Q236.24-21.60 239.48-21.60L239.48-21.60Q242.76-21.60 245.36-20.20Q247.96-18.80 249.42-16.32Q250.88-13.84 250.88-10.68L250.88-10.68Q250.88-7.52 249.42-5.02Q247.96-2.52 245.36-1.12Q242.76 0.28 239.48 0.28L239.48 0.28ZM239.48-4Q242.24-4 244.04-5.84Q245.84-7.68 245.84-10.68L245.84-10.68Q245.84-13.68 244.04-15.52Q242.24-17.36 239.48-17.36L239.48-17.36Q236.72-17.36 234.94-15.52Q233.16-13.68 233.16-10.68L233.16-10.68Q233.16-7.68 234.94-5.84Q236.72-4 239.48-4L239.48-4Z M284.32-21.36L289.12-21.36L279.12 1.72Q277.72 5.20 275.72 6.62Q273.72 8.04 270.88 8.04L270.88 8.04Q269.28 8.04 267.72 7.52Q266.16 7 265.16 6.08L265.16 6.08L267.16 2.40Q267.88 3.08 268.86 3.48Q269.84 3.88 270.84 3.88L270.84 3.88Q272.16 3.88 273.02 3.20Q273.88 2.52 274.60 0.92L274.60 0.92L274.96 0.08L265.64-21.36L270.84-21.36L277.56-5.56L284.32-21.36Z M302.44 0.28Q299.20 0.28 296.60-1.12Q294.00-2.52 292.54-5.02Q291.08-7.52 291.08-10.68L291.08-10.68Q291.08-13.84 292.54-16.32Q294.00-18.80 296.60-20.20Q299.20-21.60 302.44-21.60L302.44-21.60Q305.72-21.60 308.32-20.20Q310.92-18.80 312.38-16.32Q313.84-13.84 313.84-10.68L313.84-10.68Q313.84-7.52 312.38-5.02Q310.92-2.52 308.32-1.12Q305.72 0.28 302.44 0.28L302.44 0.28ZM302.44-4Q305.20-4 307.00-5.84Q308.80-7.68 308.80-10.68L308.80-10.68Q308.80-13.68 307.00-15.52Q305.20-17.36 302.44-17.36L302.44-17.36Q299.68-17.36 297.90-15.52Q296.12-13.68 296.12-10.68L296.12-10.68Q296.12-7.68 297.90-5.84Q299.68-4 302.44-4L302.44-4Z M335.52-21.36L340.52-21.36L340.52 0L335.76 0L335.76-2.72Q334.56-1.28 332.76-0.50Q330.96 0.28 328.88 0.28L328.88 0.28Q324.60 0.28 322.14-2.10Q319.68-4.48 319.68-9.16L319.68-9.16L319.68-21.36L324.68-21.36L324.68-9.84Q324.68-6.96 325.98-5.54Q327.28-4.12 329.68-4.12L329.68-4.12Q332.36-4.12 333.94-5.78Q335.52-7.44 335.52-10.56L335.52-10.56L335.52-21.36Z M353.04-18.24Q355.20-21.60 360.64-21.60L360.64-21.60L360.64-16.84Q360.00-16.96 359.48-16.96L359.48-16.96Q356.56-16.96 354.92-15.26Q353.28-13.56 353.28-10.36L353.28-10.36L353.28 0L348.28 0L348.28-21.36L353.04-21.36L353.04-18.24Z M394.44-29.68L399.44-29.68L399.44 0L394.64 0L394.64-2.76Q393.40-1.24 391.58-0.48Q389.76 0.28 387.56 0.28L387.56 0.28Q384.48 0.28 382.02-1.08Q379.56-2.44 378.16-4.94Q376.76-7.44 376.76-10.68L376.76-10.68Q376.76-13.92 378.16-16.40Q379.56-18.88 382.02-20.24Q384.48-21.60 387.56-21.60L387.56-21.60Q389.68-21.60 391.44-20.88Q393.20-20.16 394.44-18.72L394.44-18.72L394.44-29.68ZM388.16-4Q389.96-4 391.40-4.82Q392.84-5.64 393.68-7.16Q394.52-8.68 394.52-10.68L394.52-10.68Q394.52-12.68 393.68-14.20Q392.84-15.72 391.40-16.54Q389.96-17.36 388.16-17.36L388.16-17.36Q386.36-17.36 384.92-16.54Q383.48-15.72 382.64-14.20Q381.80-12.68 381.80-10.68L381.80-10.68Q381.80-8.68 382.64-7.16Q383.48-5.64 384.92-4.82Q386.36-4 388.16-4L388.16-4Z M411.96-18.24Q414.12-21.60 419.56-21.60L419.56-21.60L419.56-16.84Q418.92-16.96 418.40-16.96L418.40-16.96Q415.48-16.96 413.84-15.26Q412.20-13.56 412.20-10.36L412.20-10.36L412.20 0L407.20 0L407.20-21.36L411.96-21.36L411.96-18.24Z M444.88-10.56Q444.88-10.04 444.80-9.08L444.80-9.08L428.04-9.08Q428.48-6.72 430.34-5.34Q432.20-3.96 434.96-3.96L434.96-3.96Q438.48-3.96 440.76-6.28L440.76-6.28L443.44-3.20Q442.00-1.48 439.80-0.60Q437.60 0.28 434.84 0.28L434.84 0.28Q431.32 0.28 428.64-1.12Q425.96-2.52 424.50-5.02Q423.04-7.52 423.04-10.68L423.04-10.68Q423.04-13.80 424.46-16.30Q425.88-18.80 428.40-20.20Q430.92-21.60 434.08-21.60L434.08-21.60Q437.20-21.60 439.66-20.22Q442.12-18.84 443.50-16.34Q444.88-13.84 444.88-10.56L444.88-10.56ZM434.08-17.60Q431.68-17.60 430.02-16.18Q428.36-14.76 428.00-12.40L428.00-12.40L440.12-12.40Q439.80-14.72 438.16-16.16Q436.52-17.60 434.08-17.60L434.08-17.60Z M458.44-21.60Q463.16-21.60 465.66-19.34Q468.16-17.08 468.16-12.52L468.16-12.52L468.16 0L463.44 0L463.44-2.60Q462.52-1.20 460.82-0.46Q459.12 0.28 456.72 0.28L456.72 0.28Q454.32 0.28 452.52-0.54Q450.72-1.36 449.74-2.82Q448.76-4.28 448.76-6.12L448.76-6.12Q448.76-9 450.90-10.74Q453.04-12.48 457.64-12.48L457.64-12.48L463.16-12.48L463.16-12.80Q463.16-15.04 461.82-16.24Q460.48-17.44 457.84-17.44L457.84-17.44Q456.04-17.44 454.30-16.88Q452.56-16.32 451.36-15.32L451.36-15.32L449.40-18.96Q451.08-20.24 453.44-20.92Q455.80-21.60 458.44-21.60L458.44-21.60ZM457.76-3.36Q459.64-3.36 461.10-4.22Q462.56-5.08 463.16-6.68L463.16-6.68L463.16-9.16L458.00-9.16Q453.68-9.16 453.68-6.32L453.68-6.32Q453.68-4.96 454.76-4.16Q455.84-3.36 457.76-3.36L457.76-3.36Z M502.72-21.60Q506.76-21.60 509.12-19.26Q511.48-16.92 511.48-12.24L511.48-12.24L511.48 0L506.48 0L506.48-11.60Q506.48-14.40 505.24-15.82Q504.00-17.24 501.68-17.24L501.68-17.24Q499.16-17.24 497.64-15.58Q496.12-13.92 496.12-10.84L496.12-10.84L496.12 0L491.12 0L491.12-11.60Q491.12-14.40 489.88-15.82Q488.64-17.24 486.32-17.24L486.32-17.24Q483.76-17.24 482.26-15.60Q480.76-13.96 480.76-10.84L480.76-10.84L480.76 0L475.76 0L475.76-21.36L480.52-21.36L480.52-18.64Q481.72-20.08 483.52-20.84Q485.32-21.60 487.52-21.60L487.52-21.60Q489.92-21.60 491.78-20.70Q493.64-19.80 494.72-18.04L494.72-18.04Q496.04-19.72 498.12-20.66Q500.20-21.60 502.72-21.60L502.72-21.60Z M547.24-29.68L552.24-29.68L552.24 0L547.44 0L547.44-2.76Q546.20-1.24 544.38-0.48Q542.56 0.28 540.36 0.28L540.36 0.28Q537.28 0.28 534.82-1.08Q532.36-2.44 530.96-4.94Q529.56-7.44 529.56-10.68L529.56-10.68Q529.56-13.92 530.96-16.40Q532.36-18.88 534.82-20.24Q537.28-21.60 540.36-21.60L540.36-21.60Q542.48-21.60 544.24-20.88Q546.00-20.16 547.24-18.72L547.24-18.72L547.24-29.68ZM540.96-4Q542.76-4 544.20-4.82Q545.64-5.64 546.48-7.16Q547.32-8.68 547.32-10.68L547.32-10.68Q547.32-12.68 546.48-14.20Q545.64-15.72 544.20-16.54Q542.76-17.36 540.96-17.36L540.96-17.36Q539.16-17.36 537.72-16.54Q536.28-15.72 535.44-14.20Q534.60-12.68 534.60-10.68L534.60-10.68Q534.60-8.68 535.44-7.16Q536.28-5.64 537.72-4.82Q539.16-4 540.96-4L540.96-4Z M580.08-10.56Q580.08-10.04 580.00-9.08L580.00-9.08L563.24-9.08Q563.68-6.72 565.54-5.34Q567.40-3.96 570.16-3.96L570.16-3.96Q573.68-3.96 575.96-6.28L575.96-6.28L578.64-3.20Q577.20-1.48 575.00-0.60Q572.80 0.28 570.04 0.28L570.04 0.28Q566.52 0.28 563.84-1.12Q561.16-2.52 559.70-5.02Q558.24-7.52 558.24-10.68L558.24-10.68Q558.24-13.80 559.66-16.30Q561.08-18.80 563.60-20.20Q566.12-21.60 569.28-21.60L569.28-21.60Q572.40-21.60 574.86-20.22Q577.32-18.84 578.70-16.34Q580.08-13.84 580.08-10.56L580.08-10.56ZM569.28-17.60Q566.88-17.60 565.22-16.18Q563.56-14.76 563.20-12.40L563.20-12.40L575.32-12.40Q575.00-14.72 573.36-16.16Q571.72-17.60 569.28-17.60L569.28-17.60Z M592.68 0.28Q590.08 0.28 587.60-0.40Q585.12-1.08 583.64-2.12L583.64-2.12L585.56-5.92Q587-4.96 589.02-4.38Q591.04-3.80 593-3.80L593-3.80Q597.48-3.80 597.48-6.16L597.48-6.16Q597.48-7.28 596.34-7.72Q595.20-8.16 592.68-8.56L592.68-8.56Q590.04-8.96 588.38-9.48Q586.72-10 585.50-11.30Q584.28-12.60 584.28-14.92L584.28-14.92Q584.28-17.96 586.82-19.78Q589.36-21.60 593.68-21.60L593.68-21.60Q595.88-21.60 598.08-21.10Q600.28-20.60 601.68-19.76L601.68-19.76L599.76-15.96Q597.04-17.56 593.64-17.56L593.64-17.56Q591.44-17.56 590.30-16.90Q589.16-16.24 589.16-15.16L589.16-15.16Q589.16-13.96 590.38-13.46Q591.60-12.96 594.16-12.52L594.16-12.52Q596.72-12.12 598.36-11.60Q600-11.08 601.18-9.84Q602.36-8.60 602.36-6.32L602.36-6.32Q602.36-3.32 599.76-1.52Q597.16 0.28 592.68 0.28L592.68 0.28Z M619.32-4.72L620.72-1.16Q619.84-0.44 618.58-0.08Q617.32 0.28 615.92 0.28L615.92 0.28Q612.40 0.28 610.48-1.56Q608.56-3.40 608.56-6.92L608.56-6.92L608.56-17.20L605.04-17.20L605.04-21.20L608.56-21.20L608.56-26.08L613.56-26.08L613.56-21.20L619.28-21.20L619.28-17.20L613.56-17.20L613.56-7.04Q613.56-5.48 614.32-4.66Q615.08-3.84 616.52-3.84L616.52-3.84Q618.20-3.84 619.32-4.72L619.32-4.72Z M626.04 0L626.04-21.36L631.04-21.36L631.04 0L626.04 0ZM628.56-24.88Q627.20-24.88 626.28-25.74Q625.36-26.60 625.36-27.88L625.36-27.88Q625.36-29.16 626.28-30.02Q627.20-30.88 628.56-30.88L628.56-30.88Q629.92-30.88 630.84-30.06Q631.76-29.24 631.76-28L631.76-28Q631.76-26.68 630.86-25.78Q629.96-24.88 628.56-24.88L628.56-24.88Z M650.92-21.60Q654.96-21.60 657.40-19.24Q659.84-16.88 659.84-12.24L659.84-12.24L659.84 0L654.84 0L654.84-11.60Q654.84-14.40 653.52-15.82Q652.20-17.24 649.76-17.24L649.76-17.24Q647.00-17.24 645.40-15.58Q643.80-13.92 643.80-10.80L643.80-10.80L643.80 0L638.80 0L638.80-21.36L643.56-21.36L643.56-18.60Q644.80-20.08 646.68-20.84Q648.56-21.60 650.92-21.60L650.92-21.60Z M675.56-21.60Q680.28-21.60 682.78-19.34Q685.28-17.08 685.28-12.52L685.28-12.52L685.28 0L680.56 0L680.56-2.60Q679.64-1.20 677.94-0.46Q676.24 0.28 673.84 0.28L673.84 0.28Q671.44 0.28 669.64-0.54Q667.84-1.36 666.86-2.82Q665.88-4.28 665.88-6.12L665.88-6.12Q665.88-9 668.02-10.74Q670.16-12.48 674.76-12.48L674.76-12.48L680.28-12.48L680.28-12.80Q680.28-15.04 678.94-16.24Q677.60-17.44 674.96-17.44L674.96-17.44Q673.16-17.44 671.42-16.88Q669.68-16.32 668.48-15.32L668.48-15.32L666.52-18.96Q668.20-20.24 670.56-20.92Q672.92-21.60 675.56-21.60L675.56-21.60ZM674.88-3.36Q676.76-3.36 678.22-4.22Q679.68-5.08 680.28-6.68L680.28-6.68L680.28-9.16L675.12-9.16Q670.80-9.16 670.80-6.32L670.80-6.32Q670.80-4.96 671.88-4.16Q672.96-3.36 674.88-3.36L674.88-3.36Z M704.32-4.72L705.72-1.16Q704.84-0.44 703.58-0.08Q702.32 0.28 700.92 0.28L700.92 0.28Q697.40 0.28 695.48-1.56Q693.56-3.40 693.56-6.92L693.56-6.92L693.56-17.20L690.04-17.20L690.04-21.20L693.56-21.20L693.56-26.08L698.56-26.08L698.56-21.20L704.28-21.20L704.28-17.20L698.56-17.20L698.56-7.04Q698.56-5.48 699.32-4.66Q700.08-3.84 701.52-3.84L701.52-3.84Q703.20-3.84 704.32-4.72L704.32-4.72Z M711.04 0L711.04-21.36L716.04-21.36L716.04 0L711.04 0ZM713.56-24.88Q712.20-24.88 711.28-25.74Q710.36-26.60 710.36-27.88L710.36-27.88Q710.36-29.16 711.28-30.02Q712.20-30.88 713.56-30.88L713.56-30.88Q714.92-30.88 715.84-30.06Q716.76-29.24 716.76-28L716.76-28Q716.76-26.68 715.86-25.78Q714.96-24.88 713.56-24.88L713.56-24.88Z M733.40 0.28Q730.16 0.28 727.56-1.12Q724.96-2.52 723.50-5.02Q722.04-7.52 722.04-10.68L722.04-10.68Q722.04-13.84 723.50-16.32Q724.96-18.80 727.56-20.20Q730.16-21.60 733.40-21.60L733.40-21.60Q736.68-21.60 739.28-20.20Q741.88-18.80 743.34-16.32Q744.80-13.84 744.80-10.68L744.80-10.68Q744.80-7.52 743.34-5.02Q741.88-2.52 739.28-1.12Q736.68 0.28 733.40 0.28L733.40 0.28ZM733.40-4Q736.16-4 737.96-5.84Q739.76-7.68 739.76-10.68L739.76-10.68Q739.76-13.68 737.96-15.52Q736.16-17.36 733.40-17.36L733.40-17.36Q730.64-17.36 728.86-15.52Q727.08-13.68 727.08-10.68L727.08-10.68Q727.08-7.68 728.86-5.84Q730.64-4 733.40-4L733.40-4Z M762.92-21.60Q766.96-21.60 769.40-19.24Q771.84-16.88 771.84-12.24L771.84-12.24L771.84 0L766.84 0L766.84-11.60Q766.84-14.40 765.52-15.82Q764.20-17.24 761.76-17.24L761.76-17.24Q759.00-17.24 757.40-15.58Q755.80-13.92 755.80-10.80L755.80-10.80L755.80 0L750.80 0L750.80-21.36L755.56-21.36L755.56-18.60Q756.80-20.08 758.68-20.84Q760.56-21.60 762.92-21.60L762.92-21.60Z"/></g>
</svg>
</g><g opacity="1" transform="rotate(0 601.9061 342.9981)">
<svg width="378.9304" height="60" x="601.9061" y="342.9981" version="1.1" preserveAspectRatio="none" viewBox="2.88 -31.48 249.84000000000003 39.56">
  <g transform="matrix(1 0 0 1 0 0)" class="companyName"><path id="id-D6z1nYkh10" d="M30.44-21.84Q34.48-21.84 36.86-19.46Q39.24-17.08 39.24-12.32L39.24-12.32L39.24 0L33 0L33-11.36Q33-13.92 31.94-15.18Q30.88-16.44 28.92-16.44L28.92-16.44Q26.72-16.44 25.44-15.02Q24.16-13.60 24.16-10.80L24.16-10.80L24.16 0L17.92 0L17.92-11.36Q17.92-16.44 13.84-16.44L13.84-16.44Q11.68-16.44 10.40-15.02Q9.12-13.60 9.12-10.80L9.12-10.80L9.12 0L2.88 0L2.88-21.52L8.84-21.52L8.84-19.04Q10.04-20.40 11.78-21.12Q13.52-21.84 15.60-21.84L15.60-21.84Q17.88-21.84 19.72-20.94Q21.56-20.04 22.68-18.32L22.68-18.32Q24-20 26.02-20.92Q28.04-21.84 30.44-21.84L30.44-21.84Z M44.84 0L44.84-21.52L51.08-21.52L51.08 0L44.84 0ZM47.96-24.52Q46.24-24.52 45.16-25.52Q44.08-26.52 44.08-28L44.08-28Q44.08-29.48 45.16-30.48Q46.24-31.48 47.96-31.48L47.96-31.48Q49.68-31.48 50.76-30.52Q51.84-29.56 51.84-28.12L51.84-28.12Q51.84-26.56 50.76-25.54Q49.68-24.52 47.96-24.52L47.96-24.52Z M69.96-21.84Q73.96-21.84 76.42-19.44Q78.88-17.04 78.88-12.32L78.88-12.32L78.88 0L72.64 0L72.64-11.36Q72.64-13.92 71.52-15.18Q70.40-16.44 68.28-16.44L68.28-16.44Q65.92-16.44 64.52-14.98Q63.12-13.52 63.12-10.64L63.12-10.64L63.12 0L56.88 0L56.88-21.52L62.84-21.52L62.84-19Q64.08-20.36 65.92-21.10Q67.76-21.84 69.96-21.84L69.96-21.84Z M100.36-21.52L106.60-21.52L106.60 0L100.64 0L100.64-2.48Q98.32 0.32 93.92 0.32L93.92 0.32Q90.88 0.32 88.42-1.04Q85.96-2.40 84.56-4.92Q83.16-7.44 83.16-10.76L83.16-10.76Q83.16-14.08 84.56-16.60Q85.96-19.12 88.42-20.48Q90.88-21.84 93.92-21.84L93.92-21.84Q98.04-21.84 100.36-19.24L100.36-19.24L100.36-21.52ZM95-4.80Q97.36-4.80 98.92-6.42Q100.48-8.04 100.48-10.76L100.48-10.76Q100.48-13.48 98.92-15.10Q97.36-16.72 95-16.72L95-16.72Q92.60-16.72 91.04-15.10Q89.48-13.48 89.48-10.76L89.48-10.76Q89.48-8.04 91.04-6.42Q92.60-4.80 95-4.80L95-4.80Z M123.68-5.44L125.32-1.04Q124.40-0.36 123.06-0.02Q121.72 0.32 120.28 0.32L120.28 0.32Q116.40 0.32 114.32-1.64Q112.24-3.60 112.24-7.40L112.24-7.40L112.24-26.28L118.48-26.28L118.48-21.04L123.80-21.04L123.80-16.24L118.48-16.24L118.48-7.48Q118.48-6.12 119.16-5.38Q119.84-4.64 121.12-4.64L121.12-4.64Q122.56-4.64 123.68-5.44L123.68-5.44Z M144.28-21.52L150.52-21.52L150.52-3.60Q150.52 2.32 147.52 5.20Q144.52 8.08 138.80 8.08L138.80 8.08Q135.76 8.08 133.06 7.32Q130.36 6.56 128.52 5.12L128.52 5.12L131 0.64Q132.36 1.76 134.32 2.40Q136.28 3.04 138.28 3.04L138.28 3.04Q141.40 3.04 142.84 1.60Q144.28 0.16 144.28-2.80L144.28-2.80L144.28-3.52Q143.08-2.32 141.44-1.68Q139.80-1.04 137.92-1.04L137.92-1.04Q133.68-1.04 131.20-3.46Q128.72-5.88 128.72-10.72L128.72-10.72L128.72-21.52L134.96-21.52L134.96-11.64Q134.96-6.40 139.32-6.40L139.32-6.40Q141.56-6.40 142.92-7.86Q144.28-9.32 144.28-12.20L144.28-12.20L144.28-21.52Z M158.68 0.32Q157.04 0.32 155.92-0.80Q154.80-1.92 154.80-3.60L154.80-3.60Q154.80-5.32 155.92-6.38Q157.04-7.44 158.68-7.44L158.68-7.44Q160.32-7.44 161.44-6.38Q162.56-5.32 162.56-3.60L162.56-3.60Q162.56-1.92 161.44-0.80Q160.32 0.32 158.68 0.32L158.68 0.32Z M177.20 0.32Q173.76 0.32 171.02-1.10Q168.28-2.52 166.74-5.04Q165.20-7.56 165.20-10.76L165.20-10.76Q165.20-13.96 166.74-16.48Q168.28-19 171.02-20.42Q173.76-21.84 177.20-21.84L177.20-21.84Q180.60-21.84 183.14-20.42Q185.68-19 186.84-16.36L186.84-16.36L182-13.76Q180.32-16.72 177.16-16.72L177.16-16.72Q174.72-16.72 173.12-15.12Q171.52-13.52 171.52-10.76L171.52-10.76Q171.52-8 173.12-6.40Q174.72-4.80 177.16-4.80L177.16-4.80Q180.36-4.80 182-7.76L182-7.76L186.84-5.12Q185.68-2.56 183.14-1.12Q180.60 0.32 177.20 0.32L177.20 0.32Z M200.40 0.32Q197 0.32 194.30-1.10Q191.60-2.52 190.08-5.04Q188.56-7.56 188.56-10.76L188.56-10.76Q188.56-13.96 190.08-16.48Q191.60-19 194.30-20.42Q197-21.84 200.40-21.84L200.40-21.84Q203.80-21.84 206.48-20.42Q209.16-19 210.68-16.48Q212.20-13.96 212.20-10.76L212.20-10.76Q212.20-7.56 210.68-5.04Q209.16-2.52 206.48-1.10Q203.80 0.32 200.40 0.32L200.40 0.32ZM200.40-4.80Q202.80-4.80 204.34-6.42Q205.88-8.04 205.88-10.76L205.88-10.76Q205.88-13.48 204.34-15.10Q202.80-16.72 200.40-16.72L200.40-16.72Q198-16.72 196.44-15.10Q194.88-13.48 194.88-10.76L194.88-10.76Q194.88-8.04 196.44-6.42Q198-4.80 200.40-4.80L200.40-4.80Z M243.92-21.84Q247.96-21.84 250.34-19.46Q252.72-17.08 252.72-12.32L252.72-12.32L252.72 0L246.48 0L246.48-11.36Q246.48-13.92 245.42-15.18Q244.36-16.44 242.40-16.44L242.40-16.44Q240.20-16.44 238.92-15.02Q237.64-13.60 237.64-10.80L237.64-10.80L237.64 0L231.40 0L231.40-11.36Q231.40-16.44 227.32-16.44L227.32-16.44Q225.16-16.44 223.88-15.02Q222.60-13.60 222.60-10.80L222.60-10.80L222.60 0L216.36 0L216.36-21.52L222.32-21.52L222.32-19.04Q223.52-20.40 225.26-21.12Q227-21.84 229.08-21.84L229.08-21.84Q231.36-21.84 233.20-20.94Q235.04-20.04 236.16-18.32L236.16-18.32Q237.48-20 239.50-20.92Q241.52-21.84 243.92-21.84L243.92-21.84Z"/></g>
</svg>
</g></svg></svg>